<?xml version="1.0" encoding="UTF-8" standalone="no"?>
<!DOCTYPE svg PUBLIC "-//W3C//DTD SVG 1.1//EN"
 "http://www.w3.org/Graphics/SVG/1.1/DTD/svg11.dtd">
<!-- Generated by graphviz version 2.40.1 (20161225.0304)
 -->
<!-- Title: G Pages: 1 -->
<svg width="1253pt" height="1437pt"
 viewBox="0.00 0.00 1252.81 1437.25" xmlns="http://www.w3.org/2000/svg" xmlns:xlink="http://www.w3.org/1999/xlink">
<g id="graph0" class="graph" transform="scale(1 1) rotate(0) translate(4 1433.254)">
<title>G</title>
<polygon fill="#ffffff" stroke="transparent" points="-4,4 -4,-1433.254 1248.8061,-1433.254 1248.8061,4 -4,4"/>
<!-- node70 -->
<g id="node1" class="node">
<title>node70</title>
<ellipse fill="none" stroke="#000000" cx="593.9741" cy="-1402.3839" rx="82.9636" ry="26.7407"/>
<text text-anchor="middle" x="593.9741" y="-1406.1839" font-family="Times,serif" font-size="14.00" fill="#000000">ProgramNode</text>
<text text-anchor="middle" x="593.9741" y="-1391.1839" font-family="Times,serif" font-size="14.00" fill="#000000">env</text>
</g>
<!-- node69 -->
<g id="node2" class="node">
<title>node69</title>
<ellipse fill="none" stroke="#000000" cx="593.9741" cy="-1306.5139" rx="61.99" ry="18"/>
<text text-anchor="middle" x="593.9741" y="-1302.8139" font-family="Times,serif" font-size="14.00" fill="#000000">BlockNode</text>
</g>
<!-- node70&#45;&gt;node69 -->
<g id="edge1" class="edge">
<title>node70&#45;&gt;node69</title>
<path fill="none" stroke="#0000ff" d="M593.9741,-1375.4236C593.9741,-1362.7894 593.9741,-1347.7337 593.9741,-1334.9225"/>
<polygon fill="#0000ff" stroke="#0000ff" points="597.4742,-1334.7913 593.9741,-1324.7914 590.4742,-1334.7914 597.4742,-1334.7913"/>
<g id="a_edge1&#45;label"><a xlink:title="Program Block">
<text text-anchor="middle" x="613.9741" y="-1346.3139" font-family="Times,serif" font-size="14.00" fill="#000000">block</text>
</a>
</g>
</g>
<!-- node62 -->
<g id="node3" class="node">
<title>node62</title>
<ellipse fill="none" stroke="#000000" cx="500.9741" cy="-1219.5139" rx="92.8835" ry="18"/>
<text text-anchor="middle" x="500.9741" y="-1215.8139" font-family="Times,serif" font-size="14.00" fill="#000000">FuncDefListNode</text>
</g>
<!-- node69&#45;&gt;node62 -->
<g id="edge2" class="edge">
<title>node69&#45;&gt;node62</title>
<path fill="none" stroke="#0000ff" d="M575.6003,-1289.3255C561.8966,-1276.5058 542.9726,-1258.8027 527.6105,-1244.4317"/>
<polygon fill="#0000ff" stroke="#0000ff" points="529.6421,-1241.5395 519.9483,-1237.2638 524.8599,-1246.6514 529.6421,-1241.5395"/>
<g id="a_edge2&#45;label"><a xlink:title="Function/Procedure Part">
<text text-anchor="middle" x="569.9741" y="-1259.3139" font-family="Times,serif" font-size="14.00" fill="#000000">func</text>
</a>
</g>
</g>
<!-- node68 -->
<g id="node49" class="node">
<title>node68</title>
<ellipse fill="none" stroke="#000000" cx="688.9741" cy="-1219.5139" rx="76.8869" ry="18"/>
<text text-anchor="middle" x="688.9741" y="-1215.8139" font-family="Times,serif" font-size="14.00" fill="#000000">StmtListNode</text>
</g>
<!-- node69&#45;&gt;node68 -->
<g id="edge48" class="edge">
<title>node69&#45;&gt;node68</title>
<path fill="none" stroke="#0000ff" d="M612.7431,-1289.3255C626.9629,-1276.3031 646.6852,-1258.2416 662.5067,-1243.7525"/>
<polygon fill="#0000ff" stroke="#0000ff" points="664.908,-1246.2993 669.919,-1236.9643 660.1804,-1241.1369 664.908,-1246.2993"/>
<g id="a_edge48&#45;label"><a xlink:title="Statement Part">
<text text-anchor="middle" x="668.4741" y="-1259.3139" font-family="Times,serif" font-size="14.00" fill="#000000">stmts</text>
</a>
</g>
</g>
<!-- node61 -->
<g id="node4" class="node">
<title>node61</title>
<ellipse fill="none" stroke="#000000" cx="497.9741" cy="-1123.6438" rx="82.0488" ry="26.7407"/>
<text text-anchor="middle" x="497.9741" y="-1127.4438" font-family="Times,serif" font-size="14.00" fill="#000000">FuncDefNode</text>
<text text-anchor="middle" x="497.9741" y="-1112.4438" font-family="Times,serif" font-size="14.00" fill="#000000">a</text>
</g>
<!-- node62&#45;&gt;node61 -->
<g id="edge3" class="edge">
<title>node62&#45;&gt;node61</title>
<path fill="none" stroke="#0000ff" d="M500.4099,-1201.4814C500.0528,-1190.0705 499.5779,-1174.8956 499.1424,-1160.9763"/>
<polygon fill="#0000ff" stroke="#0000ff" points="502.6307,-1160.5456 498.8195,-1150.66 495.6341,-1160.7646 502.6307,-1160.5456"/>
<g id="a_edge3&#45;label"><a xlink:title="Function 1">
<text text-anchor="middle" x="520.4741" y="-1172.3139" font-family="Times,serif" font-size="14.00" fill="#000000">func1</text>
</a>
</g>
</g>
<!-- node60 -->
<g id="node5" class="node">
<title>node60</title>
<ellipse fill="none" stroke="#000000" cx="488.9741" cy="-1027.7737" rx="61.99" ry="18"/>
<text text-anchor="middle" x="488.9741" y="-1024.0737" font-family="Times,serif" font-size="14.00" fill="#000000">BlockNode</text>
</g>
<!-- node61&#45;&gt;node60 -->
<g id="edge4" class="edge">
<title>node61&#45;&gt;node60</title>
<path fill="none" stroke="#0000ff" d="M495.4432,-1096.6835C494.2571,-1084.0493 492.8437,-1068.9936 491.6411,-1056.1824"/>
<polygon fill="#0000ff" stroke="#0000ff" points="495.1094,-1055.6803 490.69,-1046.0513 488.14,-1056.3346 495.1094,-1055.6803"/>
<g id="a_edge4&#45;label"><a xlink:title="Procedure Block">
<text text-anchor="middle" x="513.9741" y="-1067.5737" font-family="Times,serif" font-size="14.00" fill="#000000">block</text>
</a>
</g>
</g>
<!-- node10 -->
<g id="node6" class="node">
<title>node10</title>
<ellipse fill="none" stroke="#000000" cx="252.9741" cy="-931.9037" rx="86.3847" ry="18"/>
<text text-anchor="middle" x="252.9741" y="-928.2037" font-family="Times,serif" font-size="14.00" fill="#000000">VarDefListNode</text>
</g>
<!-- node60&#45;&gt;node10 -->
<g id="edge5" class="edge">
<title>node60&#45;&gt;node10</title>
<path fill="none" stroke="#0000ff" d="M452.8739,-1013.1088C412.4904,-996.7038 346.8537,-970.0403 301.884,-951.7723"/>
<polygon fill="#0000ff" stroke="#0000ff" points="303.2002,-948.5292 292.6181,-948.0082 300.5656,-955.0146 303.2002,-948.5292"/>
<g id="a_edge5&#45;label"><a xlink:title="Var Part">
<text text-anchor="middle" x="411.9741" y="-980.5737" font-family="Times,serif" font-size="14.00" fill="#000000">var</text>
</a>
</g>
</g>
<!-- node41 -->
<g id="node10" class="node">
<title>node41</title>
<ellipse fill="none" stroke="#000000" cx="454.9741" cy="-931.9037" rx="92.8835" ry="18"/>
<text text-anchor="middle" x="454.9741" y="-928.2037" font-family="Times,serif" font-size="14.00" fill="#000000">FuncDefListNode</text>
</g>
<!-- node60&#45;&gt;node41 -->
<g id="edge9" class="edge">
<title>node60&#45;&gt;node41</title>
<path fill="none" stroke="#0000ff" d="M482.579,-1009.7413C477.577,-995.637 470.5355,-975.7821 464.8163,-959.6556"/>
<polygon fill="#0000ff" stroke="#0000ff" points="468.0975,-958.4362 461.4562,-950.1812 461.5001,-960.7759 468.0975,-958.4362"/>
<g id="a_edge9&#45;label"><a xlink:title="Function/Procedure Part">
<text text-anchor="middle" x="492.9741" y="-980.5737" font-family="Times,serif" font-size="14.00" fill="#000000">func</text>
</a>
</g>
</g>
<!-- node49 -->
<g id="node33" class="node">
<title>node49</title>
<ellipse fill="none" stroke="#000000" cx="642.9741" cy="-931.9037" rx="76.8869" ry="18"/>
<text text-anchor="middle" x="642.9741" y="-928.2037" font-family="Times,serif" font-size="14.00" fill="#000000">StmtListNode</text>
</g>
<!-- node60&#45;&gt;node49 -->
<g id="edge32" class="edge">
<title>node60&#45;&gt;node49</title>
<path fill="none" stroke="#0000ff" d="M515.4477,-1011.2931C540.7451,-995.5446 579.0697,-971.6863 607.1017,-954.2355"/>
<polygon fill="#0000ff" stroke="#0000ff" points="609.1721,-957.0694 615.8117,-948.8132 605.4726,-951.1269 609.1721,-957.0694"/>
<g id="a_edge32&#45;label"><a xlink:title="Statement Part">
<text text-anchor="middle" x="591.4741" y="-980.5737" font-family="Times,serif" font-size="14.00" fill="#000000">stmts</text>
</a>
</g>
</g>
<!-- node11 -->
<g id="node7" class="node">
<title>node11</title>
<ellipse fill="none" stroke="#000000" cx="219.9741" cy="-827.1636" rx="74.4932" ry="26.7407"/>
<text text-anchor="middle" x="219.9741" y="-830.9636" font-family="Times,serif" font-size="14.00" fill="#000000">VarDefNode</text>
<text text-anchor="middle" x="219.9741" y="-815.9636" font-family="Times,serif" font-size="14.00" fill="#000000">x</text>
</g>
<!-- node10&#45;&gt;node11 -->
<g id="edge6" class="edge">
<title>node10&#45;&gt;node11</title>
<path fill="none" stroke="#0000ff" d="M247.226,-913.6593C242.9037,-899.9407 236.838,-880.6885 231.5262,-863.829"/>
<polygon fill="#0000ff" stroke="#0000ff" points="234.848,-862.7249 228.5046,-854.2389 228.1715,-864.8285 234.848,-862.7249"/>
<g id="a_edge6&#45;label"><a xlink:title="Type of Field 1">
<text text-anchor="middle" x="259.4741" y="-875.8336" font-family="Times,serif" font-size="14.00" fill="#000000">field1</text>
</a>
</g>
</g>
<!-- node9 -->
<g id="node8" class="node">
<title>node9</title>
<ellipse fill="none" stroke="#000000" cx="88.9741" cy="-731.2935" rx="77.1866" ry="18"/>
<text text-anchor="middle" x="88.9741" y="-727.5935" font-family="Times,serif" font-size="14.00" fill="#000000">TypeAttrNode</text>
</g>
<!-- node11&#45;&gt;node9 -->
<g id="edge7" class="edge">
<title>node11&#45;&gt;node9</title>
<path fill="none" stroke="#0000ff" d="M186.9173,-802.9715C166.6229,-788.1194 140.7693,-769.1989 120.7208,-754.5268"/>
<polygon fill="#0000ff" stroke="#0000ff" points="122.6541,-751.6044 112.5172,-748.5231 118.52,-757.2533 122.6541,-751.6044"/>
<g id="a_edge7&#45;label"><a xlink:title="Variable Definition">
<text text-anchor="middle" x="181.9741" y="-771.0935" font-family="Times,serif" font-size="14.00" fill="#000000">vardef</text>
</a>
</g>
</g>
<!-- node8 -->
<g id="node9" class="node">
<title>node8</title>
<ellipse fill="none" stroke="#000000" cx="86.9741" cy="-635.4234" rx="86.9483" ry="26.7407"/>
<text text-anchor="middle" x="86.9741" y="-639.2234" font-family="Times,serif" font-size="14.00" fill="#000000">BasicAttrNode</text>
<text text-anchor="middle" x="86.9741" y="-624.2234" font-family="Times,serif" font-size="14.00" fill="#000000">integer</text>
</g>
<!-- node9&#45;&gt;node8 -->
<g id="edge8" class="edge">
<title>node9&#45;&gt;node8</title>
<path fill="none" stroke="#0000ff" d="M88.5979,-713.2611C88.3599,-701.8502 88.0433,-686.6752 87.7529,-672.7559"/>
<polygon fill="#0000ff" stroke="#0000ff" points="91.2456,-672.3644 87.5377,-662.4396 84.2472,-672.5105 91.2456,-672.3644"/>
<g id="a_edge8&#45;label"><a xlink:title="Basic Type">
<text text-anchor="middle" x="107.9741" y="-684.0935" font-family="Times,serif" font-size="14.00" fill="#000000">basic</text>
</a>
</g>
</g>
<!-- node40 -->
<g id="node11" class="node">
<title>node40</title>
<ellipse fill="none" stroke="#000000" cx="454.9741" cy="-827.1636" rx="82.0488" ry="26.7407"/>
<text text-anchor="middle" x="454.9741" y="-830.9636" font-family="Times,serif" font-size="14.00" fill="#000000">FuncDefNode</text>
<text text-anchor="middle" x="454.9741" y="-815.9636" font-family="Times,serif" font-size="14.00" fill="#000000">b</text>
</g>
<!-- node41&#45;&gt;node40 -->
<g id="edge10" class="edge">
<title>node41&#45;&gt;node40</title>
<path fill="none" stroke="#0000ff" d="M454.9741,-913.6593C454.9741,-900.069 454.9741,-881.0478 454.9741,-864.3024"/>
<polygon fill="#0000ff" stroke="#0000ff" points="458.4742,-864.2389 454.9741,-854.2389 451.4742,-864.2389 458.4742,-864.2389"/>
<g id="a_edge10&#45;label"><a xlink:title="Function 1">
<text text-anchor="middle" x="475.4741" y="-875.8336" font-family="Times,serif" font-size="14.00" fill="#000000">func1</text>
</a>
</g>
</g>
<!-- node39 -->
<g id="node12" class="node">
<title>node39</title>
<ellipse fill="none" stroke="#000000" cx="454.9741" cy="-731.2935" rx="61.99" ry="18"/>
<text text-anchor="middle" x="454.9741" y="-727.5935" font-family="Times,serif" font-size="14.00" fill="#000000">BlockNode</text>
</g>
<!-- node40&#45;&gt;node39 -->
<g id="edge11" class="edge">
<title>node40&#45;&gt;node39</title>
<path fill="none" stroke="#0000ff" d="M454.9741,-800.2033C454.9741,-787.5691 454.9741,-772.5134 454.9741,-759.7021"/>
<polygon fill="#0000ff" stroke="#0000ff" points="458.4742,-759.571 454.9741,-749.571 451.4742,-759.5711 458.4742,-759.571"/>
<g id="a_edge11&#45;label"><a xlink:title="Procedure Block">
<text text-anchor="middle" x="474.9741" y="-771.0935" font-family="Times,serif" font-size="14.00" fill="#000000">block</text>
</a>
</g>
</g>
<!-- node19 -->
<g id="node13" class="node">
<title>node19</title>
<ellipse fill="none" stroke="#000000" cx="277.9741" cy="-635.4234" rx="86.3847" ry="18"/>
<text text-anchor="middle" x="277.9741" y="-631.7234" font-family="Times,serif" font-size="14.00" fill="#000000">VarDefListNode</text>
</g>
<!-- node39&#45;&gt;node19 -->
<g id="edge12" class="edge">
<title>node39&#45;&gt;node19</title>
<path fill="none" stroke="#0000ff" d="M425.3483,-715.247C395.9328,-699.3144 350.636,-674.7799 318.0254,-657.1168"/>
<polygon fill="#0000ff" stroke="#0000ff" points="319.6477,-654.0151 309.1877,-652.3299 316.3138,-660.1702 319.6477,-654.0151"/>
<g id="a_edge12&#45;label"><a xlink:title="Var Part">
<text text-anchor="middle" x="399.9741" y="-684.0935" font-family="Times,serif" font-size="14.00" fill="#000000">var</text>
</a>
</g>
</g>
<!-- node28 -->
<g id="node17" class="node">
<title>node28</title>
<ellipse fill="none" stroke="#000000" cx="458.9741" cy="-635.4234" rx="76.8869" ry="18"/>
<text text-anchor="middle" x="458.9741" y="-631.7234" font-family="Times,serif" font-size="14.00" fill="#000000">StmtListNode</text>
</g>
<!-- node39&#45;&gt;node28 -->
<g id="edge16" class="edge">
<title>node39&#45;&gt;node28</title>
<path fill="none" stroke="#0000ff" d="M455.7265,-713.2611C456.3039,-699.4229 457.1122,-680.049 457.778,-664.0921"/>
<polygon fill="#0000ff" stroke="#0000ff" points="461.2915,-663.8382 458.2115,-653.701 454.2976,-663.5463 461.2915,-663.8382"/>
<g id="a_edge16&#45;label"><a xlink:title="Statement Part">
<text text-anchor="middle" x="478.4741" y="-684.0935" font-family="Times,serif" font-size="14.00" fill="#000000">stmts</text>
</a>
</g>
</g>
<!-- node20 -->
<g id="node14" class="node">
<title>node20</title>
<ellipse fill="none" stroke="#000000" cx="206.9741" cy="-520.0767" rx="74.4932" ry="26.7407"/>
<text text-anchor="middle" x="206.9741" y="-523.8767" font-family="Times,serif" font-size="14.00" fill="#000000">VarDefNode</text>
<text text-anchor="middle" x="206.9741" y="-508.8767" font-family="Times,serif" font-size="14.00" fill="#000000">x</text>
</g>
<!-- node19&#45;&gt;node20 -->
<g id="edge13" class="edge">
<title>node19&#45;&gt;node20</title>
<path fill="none" stroke="#0000ff" d="M266.8804,-617.4005C256.6882,-600.8423 241.2939,-575.8326 228.663,-555.3125"/>
<polygon fill="#0000ff" stroke="#0000ff" points="231.4855,-553.2209 223.263,-546.5396 225.5243,-556.8903 231.4855,-553.2209"/>
<g id="a_edge13&#45;label"><a xlink:title="Type of Field 1">
<text text-anchor="middle" x="269.4741" y="-579.3534" font-family="Times,serif" font-size="14.00" fill="#000000">field1</text>
</a>
</g>
</g>
<!-- node18 -->
<g id="node15" class="node">
<title>node18</title>
<ellipse fill="none" stroke="#000000" cx="156.9741" cy="-394.1234" rx="77.1866" ry="18"/>
<text text-anchor="middle" x="156.9741" y="-390.4234" font-family="Times,serif" font-size="14.00" fill="#000000">TypeAttrNode</text>
</g>
<!-- node20&#45;&gt;node18 -->
<g id="edge14" class="edge">
<title>node20&#45;&gt;node18</title>
<path fill="none" stroke="#0000ff" d="M196.3704,-493.3653C188.006,-472.2946 176.3799,-443.0079 167.9265,-421.7133"/>
<polygon fill="#0000ff" stroke="#0000ff" points="171.1173,-420.2647 164.1745,-412.2616 164.6112,-422.8475 171.1173,-420.2647"/>
<g id="a_edge14&#45;label"><a xlink:title="Variable Definition">
<text text-anchor="middle" x="206.9741" y="-453.4001" font-family="Times,serif" font-size="14.00" fill="#000000">vardef</text>
</a>
</g>
</g>
<!-- node17 -->
<g id="node16" class="node">
<title>node17</title>
<ellipse fill="none" stroke="#000000" cx="140.9741" cy="-278.7767" rx="86.9483" ry="26.7407"/>
<text text-anchor="middle" x="140.9741" y="-282.5767" font-family="Times,serif" font-size="14.00" fill="#000000">BasicAttrNode</text>
<text text-anchor="middle" x="140.9741" y="-267.5767" font-family="Times,serif" font-size="14.00" fill="#000000">integer</text>
</g>
<!-- node18&#45;&gt;node17 -->
<g id="edge15" class="edge">
<title>node18&#45;&gt;node17</title>
<path fill="none" stroke="#0000ff" d="M154.4741,-376.1005C152.2438,-360.0214 148.908,-335.973 146.1104,-315.8049"/>
<polygon fill="#0000ff" stroke="#0000ff" points="149.5461,-315.099 144.7052,-305.6748 142.6125,-316.0609 149.5461,-315.099"/>
<g id="a_edge15&#45;label"><a xlink:title="Basic Type">
<text text-anchor="middle" x="167.9741" y="-327.4468" font-family="Times,serif" font-size="14.00" fill="#000000">basic</text>
</a>
</g>
</g>
<!-- node27 -->
<g id="node18" class="node">
<title>node27</title>
<ellipse fill="none" stroke="#000000" cx="365.9741" cy="-520.0767" rx="58.4896" ry="18"/>
<text text-anchor="middle" x="365.9741" y="-516.3767" font-family="Times,serif" font-size="14.00" fill="#000000">StmtNode</text>
</g>
<!-- node28&#45;&gt;node27 -->
<g id="edge17" class="edge">
<title>node28&#45;&gt;node27</title>
<path fill="none" stroke="#0000ff" d="M444.4429,-617.4005C428.8599,-598.0732 403.9932,-567.2313 386.4355,-545.4547"/>
<polygon fill="#0000ff" stroke="#0000ff" points="389.1002,-543.1834 380.0988,-537.5954 383.6508,-547.5771 389.1002,-543.1834"/>
<g id="a_edge17&#45;label"><a xlink:title="Statement 1">
<text text-anchor="middle" x="442.4741" y="-579.3534" font-family="Times,serif" font-size="14.00" fill="#000000">stmt1</text>
</a>
</g>
</g>
<!-- node38 -->
<g id="node24" class="node">
<title>node38</title>
<ellipse fill="none" stroke="#000000" cx="500.9741" cy="-520.0767" rx="58.4896" ry="18"/>
<text text-anchor="middle" x="500.9741" y="-516.3767" font-family="Times,serif" font-size="14.00" fill="#000000">StmtNode</text>
</g>
<!-- node28&#45;&gt;node38 -->
<g id="edge23" class="edge">
<title>node28&#45;&gt;node38</title>
<path fill="none" stroke="#0000ff" d="M465.5366,-617.4005C472.3483,-598.6934 483.0878,-569.199 490.9602,-547.5786"/>
<polygon fill="#0000ff" stroke="#0000ff" points="494.325,-548.5671 494.4577,-537.9731 487.7474,-546.1721 494.325,-548.5671"/>
<g id="a_edge23&#45;label"><a xlink:title="Statement 2">
<text text-anchor="middle" x="501.4741" y="-579.3534" font-family="Times,serif" font-size="14.00" fill="#000000">stmt2</text>
</a>
</g>
</g>
<!-- node26 -->
<g id="node19" class="node">
<title>node26</title>
<ellipse fill="none" stroke="#000000" cx="365.9741" cy="-394.1234" rx="89.8845" ry="18"/>
<text text-anchor="middle" x="365.9741" y="-390.4234" font-family="Times,serif" font-size="14.00" fill="#000000">AssignStmtNode</text>
</g>
<!-- node27&#45;&gt;node26 -->
<g id="edge18" class="edge">
<title>node27&#45;&gt;node26</title>
<path fill="none" stroke="#0000ff" d="M365.9741,-502.0307C365.9741,-481.1735 365.9741,-446.5967 365.9741,-422.2136"/>
<polygon fill="#0000ff" stroke="#0000ff" points="369.4742,-422.1359 365.9741,-412.136 362.4742,-422.136 369.4742,-422.1359"/>
<g id="a_edge18&#45;label"><a xlink:title="Assign Statement">
<text text-anchor="middle" x="388.9741" y="-453.4001" font-family="Times,serif" font-size="14.00" fill="#000000">assign</text>
</a>
</g>
</g>
<!-- node22 -->
<g id="node20" class="node">
<title>node22</title>
<ellipse fill="none" stroke="#000000" cx="303.9741" cy="-278.7767" rx="57.6901" ry="18"/>
<text text-anchor="middle" x="303.9741" y="-275.0767" font-family="Times,serif" font-size="14.00" fill="#000000">ExprNode</text>
</g>
<!-- node26&#45;&gt;node22 -->
<g id="edge19" class="edge">
<title>node26&#45;&gt;node22</title>
<path fill="none" stroke="#0000ff" d="M356.2866,-376.1005C346.1404,-357.2241 330.0904,-327.3642 318.4422,-305.6936"/>
<polygon fill="#0000ff" stroke="#0000ff" points="321.411,-303.8242 313.5936,-296.6731 315.2453,-307.1384 321.411,-303.8242"/>
<g id="a_edge19&#45;label"><a xlink:title="Left Value">
<text text-anchor="middle" x="347.9741" y="-327.4468" font-family="Times,serif" font-size="14.00" fill="#000000">lval</text>
</a>
</g>
</g>
<!-- node25 -->
<g id="node22" class="node">
<title>node25</title>
<ellipse fill="none" stroke="#000000" cx="437.9741" cy="-278.7767" rx="57.6901" ry="18"/>
<text text-anchor="middle" x="437.9741" y="-275.0767" font-family="Times,serif" font-size="14.00" fill="#000000">ExprNode</text>
</g>
<!-- node26&#45;&gt;node25 -->
<g id="edge21" class="edge">
<title>node26&#45;&gt;node25</title>
<path fill="none" stroke="#0000ff" d="M377.2241,-376.1005C389.0597,-357.1395 407.8128,-327.0962 421.3542,-305.4025"/>
<polygon fill="#0000ff" stroke="#0000ff" points="424.477,-307.0094 426.8031,-296.6731 418.5389,-303.3028 424.477,-307.0094"/>
<g id="a_edge21&#45;label"><a xlink:title="Right Value">
<text text-anchor="middle" x="422.9741" y="-327.4468" font-family="Times,serif" font-size="14.00" fill="#000000">rval</text>
</a>
</g>
</g>
<!-- node21 -->
<g id="node21" class="node">
<title>node21</title>
<ellipse fill="none" stroke="#000000" cx="297.9741" cy="-163.43" rx="49.4949" ry="26.7407"/>
<text text-anchor="middle" x="297.9741" y="-167.23" font-family="Times,serif" font-size="14.00" fill="#000000">IdNode</text>
<text text-anchor="middle" x="297.9741" y="-152.23" font-family="Times,serif" font-size="14.00" fill="#000000">x</text>
</g>
<!-- node22&#45;&gt;node21 -->
<g id="edge20" class="edge">
<title>node22&#45;&gt;node21</title>
<path fill="none" stroke="#0000ff" d="M303.0366,-260.7538C302.2002,-244.6747 300.9493,-220.6263 299.9002,-200.4582"/>
<polygon fill="#0000ff" stroke="#0000ff" points="303.3881,-200.1327 299.3733,-190.3281 296.3976,-200.4964 303.3881,-200.1327"/>
<g id="a_edge20&#45;label"><a xlink:title="Identifier">
<text text-anchor="middle" x="308.9741" y="-222.7066" font-family="Times,serif" font-size="14.00" fill="#000000">id</text>
</a>
</g>
</g>
<!-- node24 -->
<g id="node23" class="node">
<title>node24</title>
<ellipse fill="none" stroke="#000000" cx="437.9741" cy="-163.43" rx="72.6644" ry="37.4533"/>
<text text-anchor="middle" x="437.9741" y="-174.73" font-family="Times,serif" font-size="14.00" fill="#000000">LiteralNode</text>
<text text-anchor="middle" x="437.9741" y="-159.73" font-family="Times,serif" font-size="14.00" fill="#000000">integer</text>
<text text-anchor="middle" x="437.9741" y="-144.73" font-family="Times,serif" font-size="14.00" fill="#000000">2</text>
</g>
<!-- node25&#45;&gt;node24 -->
<g id="edge22" class="edge">
<title>node25&#45;&gt;node24</title>
<path fill="none" stroke="#0000ff" d="M437.9741,-260.7538C437.9741,-247.5121 437.9741,-228.8656 437.9741,-211.4326"/>
<polygon fill="#0000ff" stroke="#0000ff" points="441.4742,-211.3585 437.9741,-201.3586 434.4742,-211.3586 441.4742,-211.3585"/>
<g id="a_edge22&#45;label"><a xlink:title="Literal">
<text text-anchor="middle" x="459.4741" y="-222.7066" font-family="Times,serif" font-size="14.00" fill="#000000">literal</text>
</a>
</g>
</g>
<!-- node37 -->
<g id="node25" class="node">
<title>node37</title>
<ellipse fill="none" stroke="#000000" cx="574.9741" cy="-394.1234" rx="89.8845" ry="18"/>
<text text-anchor="middle" x="574.9741" y="-390.4234" font-family="Times,serif" font-size="14.00" fill="#000000">AssignStmtNode</text>
</g>
<!-- node38&#45;&gt;node37 -->
<g id="edge24" class="edge">
<title>node38&#45;&gt;node37</title>
<path fill="none" stroke="#0000ff" d="M511.4196,-502.2978C523.8547,-481.1324 544.7476,-445.5712 559.1648,-421.032"/>
<polygon fill="#0000ff" stroke="#0000ff" points="562.2943,-422.6147 564.3422,-412.2197 556.2588,-419.0688 562.2943,-422.6147"/>
<g id="a_edge24&#45;label"><a xlink:title="Assign Statement">
<text text-anchor="middle" x="563.9741" y="-453.4001" font-family="Times,serif" font-size="14.00" fill="#000000">assign</text>
</a>
</g>
</g>
<!-- node30 -->
<g id="node26" class="node">
<title>node30</title>
<ellipse fill="none" stroke="#000000" cx="574.9741" cy="-278.7767" rx="57.6901" ry="18"/>
<text text-anchor="middle" x="574.9741" y="-275.0767" font-family="Times,serif" font-size="14.00" fill="#000000">ExprNode</text>
</g>
<!-- node37&#45;&gt;node30 -->
<g id="edge25" class="edge">
<title>node37&#45;&gt;node30</title>
<path fill="none" stroke="#0000ff" d="M574.9741,-376.1005C574.9741,-357.6711 574.9741,-328.7723 574.9741,-307.2466"/>
<polygon fill="#0000ff" stroke="#0000ff" points="578.4742,-307.0537 574.9741,-297.0537 571.4742,-307.0538 578.4742,-307.0537"/>
<g id="a_edge25&#45;label"><a xlink:title="Left Value">
<text text-anchor="middle" x="587.9741" y="-327.4468" font-family="Times,serif" font-size="14.00" fill="#000000">lval</text>
</a>
</g>
</g>
<!-- node36 -->
<g id="node28" class="node">
<title>node36</title>
<ellipse fill="none" stroke="#000000" cx="713.9741" cy="-278.7767" rx="62.8651" ry="26.7407"/>
<text text-anchor="middle" x="713.9741" y="-282.5767" font-family="Times,serif" font-size="14.00" fill="#000000">ExprNode</text>
<text text-anchor="middle" x="713.9741" y="-267.5767" font-family="Times,serif" font-size="14.00" fill="#000000">EK_Add</text>
</g>
<!-- node37&#45;&gt;node36 -->
<g id="edge27" class="edge">
<title>node37&#45;&gt;node36</title>
<path fill="none" stroke="#0000ff" d="M596.0852,-376.6047C617.6281,-358.7278 651.4848,-330.6323 677.3991,-309.1279"/>
<polygon fill="#0000ff" stroke="#0000ff" points="679.7036,-311.7636 685.164,-302.6843 675.2335,-306.3768 679.7036,-311.7636"/>
<g id="a_edge27&#45;label"><a xlink:title="Right Value">
<text text-anchor="middle" x="670.9741" y="-327.4468" font-family="Times,serif" font-size="14.00" fill="#000000">rval</text>
</a>
</g>
</g>
<!-- node29 -->
<g id="node27" class="node">
<title>node29</title>
<ellipse fill="none" stroke="#000000" cx="577.9741" cy="-163.43" rx="49.4949" ry="26.7407"/>
<text text-anchor="middle" x="577.9741" y="-167.23" font-family="Times,serif" font-size="14.00" fill="#000000">IdNode</text>
<text text-anchor="middle" x="577.9741" y="-152.23" font-family="Times,serif" font-size="14.00" fill="#000000">x</text>
</g>
<!-- node30&#45;&gt;node29 -->
<g id="edge26" class="edge">
<title>node30&#45;&gt;node29</title>
<path fill="none" stroke="#0000ff" d="M575.4429,-260.7538C575.8611,-244.6747 576.4865,-220.6263 577.0111,-200.4582"/>
<polygon fill="#0000ff" stroke="#0000ff" points="580.5133,-200.4157 577.2746,-190.3281 573.5156,-200.2337 580.5133,-200.4157"/>
<g id="a_edge26&#45;label"><a xlink:title="Identifier">
<text text-anchor="middle" x="583.9741" y="-222.7066" font-family="Times,serif" font-size="14.00" fill="#000000">id</text>
</a>
</g>
</g>
<!-- node32 -->
<g id="node29" class="node">
<title>node32</title>
<ellipse fill="none" stroke="#000000" cx="706.9741" cy="-163.43" rx="57.6901" ry="18"/>
<text text-anchor="middle" x="706.9741" y="-159.73" font-family="Times,serif" font-size="14.00" fill="#000000">ExprNode</text>
</g>
<!-- node36&#45;&gt;node32 -->
<g id="edge28" class="edge">
<title>node36&#45;&gt;node32</title>
<path fill="none" stroke="#0000ff" d="M712.3329,-251.733C711.2385,-233.6981 709.8024,-210.0338 708.6923,-191.7426"/>
<polygon fill="#0000ff" stroke="#0000ff" points="712.1809,-191.4468 708.0815,-181.6772 705.1938,-191.8708 712.1809,-191.4468"/>
<g id="a_edge28&#45;label"><a xlink:title="Operand 1">
<text text-anchor="middle" x="725.4741" y="-222.7066" font-family="Times,serif" font-size="14.00" fill="#000000">op1</text>
</a>
</g>
</g>
<!-- node35 -->
<g id="node31" class="node">
<title>node35</title>
<ellipse fill="none" stroke="#000000" cx="843.9741" cy="-163.43" rx="57.6901" ry="18"/>
<text text-anchor="middle" x="843.9741" y="-159.73" font-family="Times,serif" font-size="14.00" fill="#000000">ExprNode</text>
</g>
<!-- node36&#45;&gt;node35 -->
<g id="edge30" class="edge">
<title>node36&#45;&gt;node35</title>
<path fill="none" stroke="#0000ff" d="M741.5438,-254.3146C763.7147,-234.6428 794.699,-207.1509 816.7718,-187.5661"/>
<polygon fill="#0000ff" stroke="#0000ff" points="819.3107,-189.9925 824.4679,-180.7375 814.6649,-184.7565 819.3107,-189.9925"/>
<g id="a_edge30&#45;label"><a xlink:title="Operand 2">
<text text-anchor="middle" x="792.4741" y="-222.7066" font-family="Times,serif" font-size="14.00" fill="#000000">op2</text>
</a>
</g>
</g>
<!-- node31 -->
<g id="node30" class="node">
<title>node31</title>
<ellipse fill="none" stroke="#000000" cx="705.9741" cy="-37.4767" rx="49.4949" ry="26.7407"/>
<text text-anchor="middle" x="705.9741" y="-41.2767" font-family="Times,serif" font-size="14.00" fill="#000000">IdNode</text>
<text text-anchor="middle" x="705.9741" y="-26.2767" font-family="Times,serif" font-size="14.00" fill="#000000">x</text>
</g>
<!-- node32&#45;&gt;node31 -->
<g id="edge29" class="edge">
<title>node32&#45;&gt;node31</title>
<path fill="none" stroke="#0000ff" d="M706.8309,-145.3839C706.6857,-127.0977 706.4568,-98.2659 706.2721,-75.0037"/>
<polygon fill="#0000ff" stroke="#0000ff" points="709.7702,-74.7373 706.1908,-64.7654 702.7704,-74.7929 709.7702,-74.7373"/>
<g id="a_edge29&#45;label"><a xlink:title="Identifier">
<text text-anchor="middle" x="713.9741" y="-96.7533" font-family="Times,serif" font-size="14.00" fill="#000000">id</text>
</a>
</g>
</g>
<!-- node34 -->
<g id="node32" class="node">
<title>node34</title>
<ellipse fill="none" stroke="#000000" cx="845.9741" cy="-37.4767" rx="72.6644" ry="37.4533"/>
<text text-anchor="middle" x="845.9741" y="-48.7767" font-family="Times,serif" font-size="14.00" fill="#000000">LiteralNode</text>
<text text-anchor="middle" x="845.9741" y="-33.7767" font-family="Times,serif" font-size="14.00" fill="#000000">integer</text>
<text text-anchor="middle" x="845.9741" y="-18.7767" font-family="Times,serif" font-size="14.00" fill="#000000">1</text>
</g>
<!-- node35&#45;&gt;node34 -->
<g id="edge31" class="edge">
<title>node35&#45;&gt;node34</title>
<path fill="none" stroke="#0000ff" d="M844.2607,-145.3839C844.5104,-129.6592 844.8839,-106.1362 845.2185,-85.0626"/>
<polygon fill="#0000ff" stroke="#0000ff" points="848.7196,-85.0134 845.379,-74.9591 841.7205,-84.9022 848.7196,-85.0134"/>
<g id="a_edge31&#45;label"><a xlink:title="Literal">
<text text-anchor="middle" x="866.4741" y="-96.7533" font-family="Times,serif" font-size="14.00" fill="#000000">literal</text>
</a>
</g>
</g>
<!-- node48 -->
<g id="node34" class="node">
<title>node48</title>
<ellipse fill="none" stroke="#000000" cx="642.9741" cy="-827.1636" rx="58.4896" ry="18"/>
<text text-anchor="middle" x="642.9741" y="-823.4636" font-family="Times,serif" font-size="14.00" fill="#000000">StmtNode</text>
</g>
<!-- node49&#45;&gt;node48 -->
<g id="edge33" class="edge">
<title>node49&#45;&gt;node48</title>
<path fill="none" stroke="#0000ff" d="M642.9741,-913.6593C642.9741,-897.589 642.9741,-873.9251 642.9741,-855.4094"/>
<polygon fill="#0000ff" stroke="#0000ff" points="646.4742,-855.1988 642.9741,-845.1988 639.4742,-855.1989 646.4742,-855.1988"/>
<g id="a_edge33&#45;label"><a xlink:title="Statement 1">
<text text-anchor="middle" x="664.4741" y="-875.8336" font-family="Times,serif" font-size="14.00" fill="#000000">stmt1</text>
</a>
</g>
</g>
<!-- node59 -->
<g id="node40" class="node">
<title>node59</title>
<ellipse fill="none" stroke="#000000" cx="826.9741" cy="-827.1636" rx="58.4896" ry="18"/>
<text text-anchor="middle" x="826.9741" y="-823.4636" font-family="Times,serif" font-size="14.00" fill="#000000">StmtNode</text>
</g>
<!-- node49&#45;&gt;node59 -->
<g id="edge39" class="edge">
<title>node49&#45;&gt;node59</title>
<path fill="none" stroke="#0000ff" d="M672.5369,-915.0754C704.5229,-896.8677 755.574,-867.8073 790.1448,-848.1283"/>
<polygon fill="#0000ff" stroke="#0000ff" points="792.0334,-851.0806 798.9925,-843.0918 788.5704,-844.9972 792.0334,-851.0806"/>
<g id="a_edge39&#45;label"><a xlink:title="Statement 2">
<text text-anchor="middle" x="768.4741" y="-875.8336" font-family="Times,serif" font-size="14.00" fill="#000000">stmt2</text>
</a>
</g>
</g>
<!-- node47 -->
<g id="node35" class="node">
<title>node47</title>
<ellipse fill="none" stroke="#000000" cx="642.9741" cy="-731.2935" rx="89.8845" ry="18"/>
<text text-anchor="middle" x="642.9741" y="-727.5935" font-family="Times,serif" font-size="14.00" fill="#000000">AssignStmtNode</text>
</g>
<!-- node48&#45;&gt;node47 -->
<g id="edge34" class="edge">
<title>node48&#45;&gt;node47</title>
<path fill="none" stroke="#0000ff" d="M642.9741,-809.1311C642.9741,-795.293 642.9741,-775.9191 642.9741,-759.9622"/>
<polygon fill="#0000ff" stroke="#0000ff" points="646.4742,-759.571 642.9741,-749.571 639.4742,-759.5711 646.4742,-759.571"/>
<g id="a_edge34&#45;label"><a xlink:title="Assign Statement">
<text text-anchor="middle" x="665.9741" y="-771.0935" font-family="Times,serif" font-size="14.00" fill="#000000">assign</text>
</a>
</g>
</g>
<!-- node43 -->
<g id="node36" class="node">
<title>node43</title>
<ellipse fill="none" stroke="#000000" cx="628.9741" cy="-635.4234" rx="57.6901" ry="18"/>
<text text-anchor="middle" x="628.9741" y="-631.7234" font-family="Times,serif" font-size="14.00" fill="#000000">ExprNode</text>
</g>
<!-- node47&#45;&gt;node43 -->
<g id="edge35" class="edge">
<title>node47&#45;&gt;node43</title>
<path fill="none" stroke="#0000ff" d="M640.3408,-713.2611C638.3006,-699.2899 635.4364,-679.6759 633.0936,-663.6328"/>
<polygon fill="#0000ff" stroke="#0000ff" points="636.5516,-663.0902 631.6432,-653.701 629.625,-664.1018 636.5516,-663.0902"/>
<g id="a_edge35&#45;label"><a xlink:title="Left Value">
<text text-anchor="middle" x="650.9741" y="-684.0935" font-family="Times,serif" font-size="14.00" fill="#000000">lval</text>
</a>
</g>
</g>
<!-- node46 -->
<g id="node38" class="node">
<title>node46</title>
<ellipse fill="none" stroke="#000000" cx="763.9741" cy="-635.4234" rx="57.6901" ry="18"/>
<text text-anchor="middle" x="763.9741" y="-631.7234" font-family="Times,serif" font-size="14.00" fill="#000000">ExprNode</text>
</g>
<!-- node47&#45;&gt;node46 -->
<g id="edge37" class="edge">
<title>node47&#45;&gt;node46</title>
<path fill="none" stroke="#0000ff" d="M665.1674,-713.7095C684.6821,-698.2476 713.23,-675.6288 734.6277,-658.6751"/>
<polygon fill="#0000ff" stroke="#0000ff" points="737.0686,-661.2065 742.7331,-652.253 732.7215,-655.7199 737.0686,-661.2065"/>
<g id="a_edge37&#45;label"><a xlink:title="Right Value">
<text text-anchor="middle" x="721.9741" y="-684.0935" font-family="Times,serif" font-size="14.00" fill="#000000">rval</text>
</a>
</g>
</g>
<!-- node42 -->
<g id="node37" class="node">
<title>node42</title>
<ellipse fill="none" stroke="#000000" cx="626.9741" cy="-520.0767" rx="49.4949" ry="26.7407"/>
<text text-anchor="middle" x="626.9741" y="-523.8767" font-family="Times,serif" font-size="14.00" fill="#000000">IdNode</text>
<text text-anchor="middle" x="626.9741" y="-508.8767" font-family="Times,serif" font-size="14.00" fill="#000000">x</text>
</g>
<!-- node43&#45;&gt;node42 -->
<g id="edge36" class="edge">
<title>node43&#45;&gt;node42</title>
<path fill="none" stroke="#0000ff" d="M628.6616,-617.4005C628.3828,-601.3215 627.9659,-577.273 627.6162,-557.105"/>
<polygon fill="#0000ff" stroke="#0000ff" points="631.1135,-556.9126 627.4405,-546.9748 624.1145,-557.034 631.1135,-556.9126"/>
<g id="a_edge36&#45;label"><a xlink:title="Identifier">
<text text-anchor="middle" x="635.9741" y="-579.3534" font-family="Times,serif" font-size="14.00" fill="#000000">id</text>
</a>
</g>
</g>
<!-- node45 -->
<g id="node39" class="node">
<title>node45</title>
<ellipse fill="none" stroke="#000000" cx="766.9741" cy="-520.0767" rx="72.6644" ry="37.4533"/>
<text text-anchor="middle" x="766.9741" y="-531.3767" font-family="Times,serif" font-size="14.00" fill="#000000">LiteralNode</text>
<text text-anchor="middle" x="766.9741" y="-516.3767" font-family="Times,serif" font-size="14.00" fill="#000000">integer</text>
<text text-anchor="middle" x="766.9741" y="-501.3767" font-family="Times,serif" font-size="14.00" fill="#000000">3</text>
</g>
<!-- node46&#45;&gt;node45 -->
<g id="edge38" class="edge">
<title>node46&#45;&gt;node45</title>
<path fill="none" stroke="#0000ff" d="M764.4429,-617.4005C764.7873,-604.1589 765.2722,-585.5124 765.7257,-568.0794"/>
<polygon fill="#0000ff" stroke="#0000ff" points="769.2264,-568.093 765.9877,-558.0053 762.2288,-567.9109 769.2264,-568.093"/>
<g id="a_edge38&#45;label"><a xlink:title="Literal">
<text text-anchor="middle" x="787.4741" y="-579.3534" font-family="Times,serif" font-size="14.00" fill="#000000">literal</text>
</a>
</g>
</g>
<!-- node58 -->
<g id="node41" class="node">
<title>node58</title>
<ellipse fill="none" stroke="#000000" cx="901.9741" cy="-731.2935" rx="89.8845" ry="18"/>
<text text-anchor="middle" x="901.9741" y="-727.5935" font-family="Times,serif" font-size="14.00" fill="#000000">AssignStmtNode</text>
</g>
<!-- node59&#45;&gt;node58 -->
<g id="edge40" class="edge">
<title>node59&#45;&gt;node58</title>
<path fill="none" stroke="#0000ff" d="M840.7303,-809.5795C852.182,-794.9412 868.6521,-773.8879 881.6288,-757.3003"/>
<polygon fill="#0000ff" stroke="#0000ff" points="884.6462,-759.1235 888.0512,-749.0907 879.1329,-754.8104 884.6462,-759.1235"/>
<g id="a_edge40&#45;label"><a xlink:title="Assign Statement">
<text text-anchor="middle" x="895.9741" y="-771.0935" font-family="Times,serif" font-size="14.00" fill="#000000">assign</text>
</a>
</g>
</g>
<!-- node51 -->
<g id="node42" class="node">
<title>node51</title>
<ellipse fill="none" stroke="#000000" cx="901.9741" cy="-635.4234" rx="57.6901" ry="18"/>
<text text-anchor="middle" x="901.9741" y="-631.7234" font-family="Times,serif" font-size="14.00" fill="#000000">ExprNode</text>
</g>
<!-- node58&#45;&gt;node51 -->
<g id="edge41" class="edge">
<title>node58&#45;&gt;node51</title>
<path fill="none" stroke="#0000ff" d="M901.9741,-713.2611C901.9741,-699.4229 901.9741,-680.049 901.9741,-664.0921"/>
<polygon fill="#0000ff" stroke="#0000ff" points="905.4742,-663.7009 901.9741,-653.701 898.4742,-663.701 905.4742,-663.7009"/>
<g id="a_edge41&#45;label"><a xlink:title="Left Value">
<text text-anchor="middle" x="914.9741" y="-684.0935" font-family="Times,serif" font-size="14.00" fill="#000000">lval</text>
</a>
</g>
</g>
<!-- node57 -->
<g id="node44" class="node">
<title>node57</title>
<ellipse fill="none" stroke="#000000" cx="1040.9741" cy="-635.4234" rx="62.8651" ry="26.7407"/>
<text text-anchor="middle" x="1040.9741" y="-639.2234" font-family="Times,serif" font-size="14.00" fill="#000000">ExprNode</text>
<text text-anchor="middle" x="1040.9741" y="-624.2234" font-family="Times,serif" font-size="14.00" fill="#000000">EK_Add</text>
</g>
<!-- node58&#45;&gt;node57 -->
<g id="edge43" class="edge">
<title>node58&#45;&gt;node57</title>
<path fill="none" stroke="#0000ff" d="M927.146,-713.9322C947.2131,-700.0916 975.7422,-680.4147 999.2184,-664.2229"/>
<polygon fill="#0000ff" stroke="#0000ff" points="1001.3691,-666.9913 1007.6139,-658.4324 997.3948,-661.229 1001.3691,-666.9913"/>
<g id="a_edge43&#45;label"><a xlink:title="Right Value">
<text text-anchor="middle" x="988.9741" y="-684.0935" font-family="Times,serif" font-size="14.00" fill="#000000">rval</text>
</a>
</g>
</g>
<!-- node50 -->
<g id="node43" class="node">
<title>node50</title>
<ellipse fill="none" stroke="#000000" cx="906.9741" cy="-520.0767" rx="49.4949" ry="26.7407"/>
<text text-anchor="middle" x="906.9741" y="-523.8767" font-family="Times,serif" font-size="14.00" fill="#000000">IdNode</text>
<text text-anchor="middle" x="906.9741" y="-508.8767" font-family="Times,serif" font-size="14.00" fill="#000000">x</text>
</g>
<!-- node51&#45;&gt;node50 -->
<g id="edge42" class="edge">
<title>node51&#45;&gt;node50</title>
<path fill="none" stroke="#0000ff" d="M902.7554,-617.4005C903.4524,-601.3215 904.4948,-577.273 905.369,-557.105"/>
<polygon fill="#0000ff" stroke="#0000ff" points="908.8717,-557.1171 905.8082,-546.9748 901.8783,-556.8138 908.8717,-557.1171"/>
<g id="a_edge42&#45;label"><a xlink:title="Identifier">
<text text-anchor="middle" x="910.9741" y="-579.3534" font-family="Times,serif" font-size="14.00" fill="#000000">id</text>
</a>
</g>
</g>
<!-- node53 -->
<g id="node45" class="node">
<title>node53</title>
<ellipse fill="none" stroke="#000000" cx="1033.9741" cy="-520.0767" rx="57.6901" ry="18"/>
<text text-anchor="middle" x="1033.9741" y="-516.3767" font-family="Times,serif" font-size="14.00" fill="#000000">ExprNode</text>
</g>
<!-- node57&#45;&gt;node53 -->
<g id="edge44" class="edge">
<title>node57&#45;&gt;node53</title>
<path fill="none" stroke="#0000ff" d="M1039.3329,-608.3798C1038.2385,-590.3448 1036.8024,-566.6805 1035.6923,-548.3894"/>
<polygon fill="#0000ff" stroke="#0000ff" points="1039.1809,-548.0935 1035.0815,-538.3239 1032.1938,-548.5176 1039.1809,-548.0935"/>
<g id="a_edge44&#45;label"><a xlink:title="Operand 1">
<text text-anchor="middle" x="1051.4741" y="-579.3534" font-family="Times,serif" font-size="14.00" fill="#000000">op1</text>
</a>
</g>
</g>
<!-- node56 -->
<g id="node47" class="node">
<title>node56</title>
<ellipse fill="none" stroke="#000000" cx="1170.9741" cy="-520.0767" rx="57.6901" ry="18"/>
<text text-anchor="middle" x="1170.9741" y="-516.3767" font-family="Times,serif" font-size="14.00" fill="#000000">ExprNode</text>
</g>
<!-- node57&#45;&gt;node56 -->
<g id="edge46" class="edge">
<title>node57&#45;&gt;node56</title>
<path fill="none" stroke="#0000ff" d="M1068.5438,-610.9614C1090.7147,-591.2895 1121.699,-563.7977 1143.7718,-544.2129"/>
<polygon fill="#0000ff" stroke="#0000ff" points="1146.3107,-546.6393 1151.4679,-537.3843 1141.6649,-541.4032 1146.3107,-546.6393"/>
<g id="a_edge46&#45;label"><a xlink:title="Operand 2">
<text text-anchor="middle" x="1119.4741" y="-579.3534" font-family="Times,serif" font-size="14.00" fill="#000000">op2</text>
</a>
</g>
</g>
<!-- node52 -->
<g id="node46" class="node">
<title>node52</title>
<ellipse fill="none" stroke="#000000" cx="1031.9741" cy="-394.1234" rx="49.4949" ry="26.7407"/>
<text text-anchor="middle" x="1031.9741" y="-397.9234" font-family="Times,serif" font-size="14.00" fill="#000000">IdNode</text>
<text text-anchor="middle" x="1031.9741" y="-382.9234" font-family="Times,serif" font-size="14.00" fill="#000000">x</text>
</g>
<!-- node53&#45;&gt;node52 -->
<g id="edge45" class="edge">
<title>node53&#45;&gt;node52</title>
<path fill="none" stroke="#0000ff" d="M1033.6876,-502.0307C1033.3972,-483.7445 1032.9394,-454.9126 1032.57,-431.6504"/>
<polygon fill="#0000ff" stroke="#0000ff" points="1036.0659,-431.3553 1032.4074,-421.4122 1029.0668,-431.4665 1036.0659,-431.3553"/>
<g id="a_edge45&#45;label"><a xlink:title="Identifier">
<text text-anchor="middle" x="1039.9741" y="-453.4001" font-family="Times,serif" font-size="14.00" fill="#000000">id</text>
</a>
</g>
</g>
<!-- node55 -->
<g id="node48" class="node">
<title>node55</title>
<ellipse fill="none" stroke="#000000" cx="1171.9741" cy="-394.1234" rx="72.6644" ry="37.4533"/>
<text text-anchor="middle" x="1171.9741" y="-405.4234" font-family="Times,serif" font-size="14.00" fill="#000000">LiteralNode</text>
<text text-anchor="middle" x="1171.9741" y="-390.4234" font-family="Times,serif" font-size="14.00" fill="#000000">integer</text>
<text text-anchor="middle" x="1171.9741" y="-375.4234" font-family="Times,serif" font-size="14.00" fill="#000000">1</text>
</g>
<!-- node56&#45;&gt;node55 -->
<g id="edge47" class="edge">
<title>node56&#45;&gt;node55</title>
<path fill="none" stroke="#0000ff" d="M1171.1174,-502.0307C1171.2423,-486.3059 1171.429,-462.783 1171.5963,-441.7094"/>
<polygon fill="#0000ff" stroke="#0000ff" points="1175.0969,-441.6333 1171.6765,-431.6058 1168.0972,-441.5777 1175.0969,-441.6333"/>
<g id="a_edge47&#45;label"><a xlink:title="Literal">
<text text-anchor="middle" x="1192.4741" y="-453.4001" font-family="Times,serif" font-size="14.00" fill="#000000">literal</text>
</a>
</g>
</g>
<!-- node67 -->
<g id="node50" class="node">
<title>node67</title>
<ellipse fill="none" stroke="#000000" cx="738.9741" cy="-1123.6438" rx="58.4896" ry="18"/>
<text text-anchor="middle" x="738.9741" y="-1119.9438" font-family="Times,serif" font-size="14.00" fill="#000000">StmtNode</text>
</g>
<!-- node68&#45;&gt;node67 -->
<g id="edge49" class="edge">
<title>node68&#45;&gt;node67</title>
<path fill="none" stroke="#0000ff" d="M698.3788,-1201.4814C705.8514,-1187.1534 716.4191,-1166.8908 724.8992,-1150.6311"/>
<polygon fill="#0000ff" stroke="#0000ff" points="728.0907,-1152.0805 729.6117,-1141.5954 721.8841,-1148.8434 728.0907,-1152.0805"/>
<g id="a_edge49&#45;label"><a xlink:title="Statement 1">
<text text-anchor="middle" x="737.4741" y="-1172.3139" font-family="Times,serif" font-size="14.00" fill="#000000">stmt1</text>
</a>
</g>
</g>
<!-- node66 -->
<g id="node51" class="node">
<title>node66</title>
<ellipse fill="none" stroke="#000000" cx="788.9741" cy="-1027.7737" rx="81.7856" ry="18"/>
<text text-anchor="middle" x="788.9741" y="-1024.0737" font-family="Times,serif" font-size="14.00" fill="#000000">FuncStmtNode</text>
</g>
<!-- node67&#45;&gt;node66 -->
<g id="edge50" class="edge">
<title>node67&#45;&gt;node66</title>
<path fill="none" stroke="#0000ff" d="M748.3788,-1105.6114C755.8514,-1091.2834 766.4191,-1071.0207 774.8992,-1054.7611"/>
<polygon fill="#0000ff" stroke="#0000ff" points="778.0907,-1056.2104 779.6117,-1045.7253 771.8841,-1052.9734 778.0907,-1056.2104"/>
<g id="a_edge50&#45;label"><a xlink:title="Function Call Statement">
<text text-anchor="middle" x="785.9741" y="-1067.5737" font-family="Times,serif" font-size="14.00" fill="#000000">func</text>
</a>
</g>
</g>
<!-- node65 -->
<g id="node52" class="node">
<title>node65</title>
<ellipse fill="none" stroke="#000000" cx="801.9741" cy="-931.9037" rx="64.1938" ry="26.7407"/>
<text text-anchor="middle" x="801.9741" y="-935.7037" font-family="Times,serif" font-size="14.00" fill="#000000">FuncNode</text>
<text text-anchor="middle" x="801.9741" y="-920.7037" font-family="Times,serif" font-size="14.00" fill="#000000">a</text>
</g>
<!-- node66&#45;&gt;node65 -->
<g id="edge51" class="edge">
<title>node66&#45;&gt;node65</title>
<path fill="none" stroke="#0000ff" d="M791.4193,-1009.7413C792.9667,-998.3304 795.0244,-983.1555 796.9118,-969.2361"/>
<polygon fill="#0000ff" stroke="#0000ff" points="800.4352,-969.2995 798.3107,-958.9199 793.4987,-968.3588 800.4352,-969.2995"/>
<g id="a_edge51&#45;label"><a xlink:title="Function Call">
<text text-anchor="middle" x="822.9741" y="-980.5737" font-family="Times,serif" font-size="14.00" fill="#000000">fun call</text>
</a>
</g>
</g>
</g>
</svg>
