<?xml version="1.0" encoding="UTF-8" standalone="no"?>
<!DOCTYPE svg PUBLIC "-//W3C//DTD SVG 1.1//EN"
 "http://www.w3.org/Graphics/SVG/1.1/DTD/svg11.dtd">
<!-- Generated by graphviz version 2.43.0 (0)
 -->
<!-- Title: G Pages: 1 -->
<svg width="1239pt" height="1437pt"
 viewBox="0.00 0.00 1238.98 1437.25" xmlns="http://www.w3.org/2000/svg" xmlns:xlink="http://www.w3.org/1999/xlink">
<g id="graph0" class="graph" transform="scale(1 1) rotate(0) translate(4 1433.25)">
<title>G</title>
<polygon fill="white" stroke="transparent" points="-4,4 -4,-1433.25 1234.98,-1433.25 1234.98,4 -4,4"/>
<!-- node70 -->
<g id="node1" class="node">
<title>node70</title>
<ellipse fill="none" stroke="black" cx="584.56" cy="-1402.38" rx="82.05" ry="26.74"/>
<text text-anchor="middle" x="584.56" y="-1406.18" font-family="Times,serif" font-size="14.00">ProgramNode</text>
<text text-anchor="middle" x="584.56" y="-1391.18" font-family="Times,serif" font-size="14.00">env</text>
</g>
<!-- node69 -->
<g id="node2" class="node">
<title>node69</title>
<ellipse fill="none" stroke="black" cx="584.56" cy="-1306.51" rx="60.39" ry="18"/>
<text text-anchor="middle" x="584.56" y="-1302.81" font-family="Times,serif" font-size="14.00">BlockNode</text>
</g>
<!-- node70&#45;&gt;node69 -->
<g id="edge1" class="edge">
<title>node70&#45;&gt;node69</title>
<path fill="none" stroke="blue" d="M584.56,-1375.49C584.56,-1362.85 584.56,-1347.65 584.56,-1334.83"/>
<polygon fill="blue" stroke="blue" points="588.06,-1334.74 584.56,-1324.74 581.06,-1334.74 588.06,-1334.74"/>
<g id="a_edge1&#45;label"><a xlink:title="Program Block">
<text text-anchor="middle" x="603.56" y="-1346.31" font-family="Times,serif" font-size="14.00">block</text>
</a>
</g>
</g>
<!-- node62 -->
<g id="node3" class="node">
<title>node62</title>
<ellipse fill="none" stroke="black" cx="492.56" cy="-1219.51" rx="91.78" ry="18"/>
<text text-anchor="middle" x="492.56" y="-1215.81" font-family="Times,serif" font-size="14.00">FuncDefListNode</text>
</g>
<!-- node69&#45;&gt;node62 -->
<g id="edge2" class="edge">
<title>node69&#45;&gt;node62</title>
<path fill="none" stroke="blue" d="M566.82,-1289.12C553.13,-1276.47 533.97,-1258.78 518.55,-1244.53"/>
<polygon fill="blue" stroke="blue" points="520.59,-1241.65 510.87,-1237.43 515.84,-1246.79 520.59,-1241.65"/>
<g id="a_edge2&#45;label"><a xlink:title="Function/Procedure Part">
<text text-anchor="middle" x="560.06" y="-1259.31" font-family="Times,serif" font-size="14.00">func</text>
</a>
</g>
</g>
<!-- node68 -->
<g id="node49" class="node">
<title>node68</title>
<ellipse fill="none" stroke="black" cx="677.56" cy="-1219.51" rx="75.29" ry="18"/>
<text text-anchor="middle" x="677.56" y="-1215.81" font-family="Times,serif" font-size="14.00">StmtListNode</text>
</g>
<!-- node69&#45;&gt;node68 -->
<g id="edge48" class="edge">
<title>node69&#45;&gt;node68</title>
<path fill="none" stroke="blue" d="M602.49,-1289.12C616.43,-1276.39 635.95,-1258.55 651.59,-1244.25"/>
<polygon fill="blue" stroke="blue" points="654.35,-1246.47 659.37,-1237.14 649.62,-1241.31 654.35,-1246.47"/>
<g id="a_edge48&#45;label"><a xlink:title="Statement Part">
<text text-anchor="middle" x="658.06" y="-1259.31" font-family="Times,serif" font-size="14.00">stmts</text>
</a>
</g>
</g>
<!-- node61 -->
<g id="node4" class="node">
<title>node61</title>
<ellipse fill="none" stroke="black" cx="489.56" cy="-1123.64" rx="80.72" ry="26.74"/>
<text text-anchor="middle" x="489.56" y="-1127.44" font-family="Times,serif" font-size="14.00">FuncDefNode</text>
<text text-anchor="middle" x="489.56" y="-1112.44" font-family="Times,serif" font-size="14.00">a</text>
</g>
<!-- node62&#45;&gt;node61 -->
<g id="edge3" class="edge">
<title>node62&#45;&gt;node61</title>
<path fill="none" stroke="blue" d="M492.01,-1201.3C491.65,-1189.99 491.16,-1174.78 490.72,-1160.89"/>
<polygon fill="blue" stroke="blue" points="494.21,-1160.5 490.39,-1150.61 487.21,-1160.72 494.21,-1160.5"/>
<g id="a_edge3&#45;label"><a xlink:title="Function 1">
<text text-anchor="middle" x="511.56" y="-1172.31" font-family="Times,serif" font-size="14.00">func1</text>
</a>
</g>
</g>
<!-- node60 -->
<g id="node5" class="node">
<title>node60</title>
<ellipse fill="none" stroke="black" cx="480.56" cy="-1027.77" rx="60.39" ry="18"/>
<text text-anchor="middle" x="480.56" y="-1024.07" font-family="Times,serif" font-size="14.00">BlockNode</text>
</g>
<!-- node61&#45;&gt;node60 -->
<g id="edge4" class="edge">
<title>node61&#45;&gt;node60</title>
<path fill="none" stroke="blue" d="M487.08,-1096.74C485.87,-1084.11 484.41,-1068.91 483.18,-1056.09"/>
<polygon fill="blue" stroke="blue" points="486.65,-1055.62 482.21,-1046 479.68,-1056.28 486.65,-1055.62"/>
<g id="a_edge4&#45;label"><a xlink:title="Procedure Block">
<text text-anchor="middle" x="504.56" y="-1067.57" font-family="Times,serif" font-size="14.00">block</text>
</a>
</g>
</g>
<!-- node10 -->
<g id="node6" class="node">
<title>node10</title>
<ellipse fill="none" stroke="black" cx="248.56" cy="-931.9" rx="84.49" ry="18"/>
<text text-anchor="middle" x="248.56" y="-928.2" font-family="Times,serif" font-size="14.00">VarDefListNode</text>
</g>
<!-- node60&#45;&gt;node10 -->
<g id="edge5" class="edge">
<title>node60&#45;&gt;node10</title>
<path fill="none" stroke="blue" d="M446.33,-1012.92C406.4,-996.77 340.18,-969.98 295.48,-951.89"/>
<polygon fill="blue" stroke="blue" points="296.59,-948.56 286.01,-948.06 293.97,-955.05 296.59,-948.56"/>
<g id="a_edge5&#45;label"><a xlink:title="Var Part">
<text text-anchor="middle" x="404.56" y="-980.57" font-family="Times,serif" font-size="14.00">var</text>
</a>
</g>
</g>
<!-- node41 -->
<g id="node10" class="node">
<title>node41</title>
<ellipse fill="none" stroke="black" cx="447.56" cy="-931.9" rx="91.78" ry="18"/>
<text text-anchor="middle" x="447.56" y="-928.2" font-family="Times,serif" font-size="14.00">FuncDefListNode</text>
</g>
<!-- node60&#45;&gt;node41 -->
<g id="edge9" class="edge">
<title>node60&#45;&gt;node41</title>
<path fill="none" stroke="blue" d="M474.51,-1009.56C469.62,-995.66 462.66,-975.87 457.04,-959.87"/>
<polygon fill="blue" stroke="blue" points="460.19,-958.28 453.57,-950.01 453.59,-960.61 460.19,-958.28"/>
<g id="a_edge9&#45;label"><a xlink:title="Function/Procedure Part">
<text text-anchor="middle" x="484.06" y="-980.57" font-family="Times,serif" font-size="14.00">func</text>
</a>
</g>
</g>
<!-- node49 -->
<g id="node33" class="node">
<title>node49</title>
<ellipse fill="none" stroke="black" cx="632.56" cy="-931.9" rx="75.29" ry="18"/>
<text text-anchor="middle" x="632.56" y="-928.2" font-family="Times,serif" font-size="14.00">StmtListNode</text>
</g>
<!-- node60&#45;&gt;node49 -->
<g id="edge32" class="edge">
<title>node60&#45;&gt;node49</title>
<path fill="none" stroke="blue" d="M505.66,-1011.27C530.84,-995.72 569.83,-971.64 597.94,-954.28"/>
<polygon fill="blue" stroke="blue" points="599.99,-957.13 606.66,-948.9 596.31,-951.18 599.99,-957.13"/>
<g id="a_edge32&#45;label"><a xlink:title="Statement Part">
<text text-anchor="middle" x="582.06" y="-980.57" font-family="Times,serif" font-size="14.00">stmts</text>
</a>
</g>
</g>
<!-- node11 -->
<g id="node7" class="node">
<title>node11</title>
<ellipse fill="none" stroke="black" cx="216.56" cy="-827.16" rx="72.66" ry="26.74"/>
<text text-anchor="middle" x="216.56" y="-830.96" font-family="Times,serif" font-size="14.00">VarDefNode</text>
<text text-anchor="middle" x="216.56" y="-815.96" font-family="Times,serif" font-size="14.00">x</text>
</g>
<!-- node10&#45;&gt;node11 -->
<g id="edge6" class="edge">
<title>node10&#45;&gt;node11</title>
<path fill="none" stroke="blue" d="M243.28,-913.94C239.03,-900.31 232.93,-880.71 227.62,-863.68"/>
<polygon fill="blue" stroke="blue" points="230.93,-862.53 224.61,-854.02 224.25,-864.61 230.93,-862.53"/>
<g id="a_edge6&#45;label"><a xlink:title="Type of Field 1">
<text text-anchor="middle" x="254.56" y="-875.83" font-family="Times,serif" font-size="14.00">field1</text>
</a>
</g>
</g>
<!-- node9 -->
<g id="node8" class="node">
<title>node9</title>
<ellipse fill="none" stroke="black" cx="87.56" cy="-731.29" rx="76.09" ry="18"/>
<text text-anchor="middle" x="87.56" y="-727.59" font-family="Times,serif" font-size="14.00">TypeAttrNode</text>
</g>
<!-- node11&#45;&gt;node9 -->
<g id="edge7" class="edge">
<title>node11&#45;&gt;node9</title>
<path fill="none" stroke="blue" d="M184.67,-802.96C164.43,-788.23 138.38,-769.28 118.36,-754.7"/>
<polygon fill="blue" stroke="blue" points="120.33,-751.81 110.18,-748.75 116.21,-757.47 120.33,-751.81"/>
<g id="a_edge7&#45;label"><a xlink:title="Variable Definition">
<text text-anchor="middle" x="179.56" y="-771.09" font-family="Times,serif" font-size="14.00">vardef</text>
</a>
</g>
</g>
<!-- node8 -->
<g id="node9" class="node">
<title>node8</title>
<ellipse fill="none" stroke="black" cx="85.56" cy="-635.42" rx="85.62" ry="26.74"/>
<text text-anchor="middle" x="85.56" y="-639.22" font-family="Times,serif" font-size="14.00">BasicAttrNode</text>
<text text-anchor="middle" x="85.56" y="-624.22" font-family="Times,serif" font-size="14.00">integer</text>
</g>
<!-- node9&#45;&gt;node8 -->
<g id="edge8" class="edge">
<title>node9&#45;&gt;node8</title>
<path fill="none" stroke="blue" d="M87.19,-713.08C86.95,-701.77 86.63,-686.56 86.33,-672.67"/>
<polygon fill="blue" stroke="blue" points="89.83,-672.32 86.11,-662.39 82.83,-672.46 89.83,-672.32"/>
<g id="a_edge8&#45;label"><a xlink:title="Basic Type">
<text text-anchor="middle" x="106.06" y="-684.09" font-family="Times,serif" font-size="14.00">basic</text>
</a>
</g>
</g>
<!-- node40 -->
<g id="node11" class="node">
<title>node40</title>
<ellipse fill="none" stroke="black" cx="447.56" cy="-827.16" rx="80.72" ry="26.74"/>
<text text-anchor="middle" x="447.56" y="-830.96" font-family="Times,serif" font-size="14.00">FuncDefNode</text>
<text text-anchor="middle" x="447.56" y="-815.96" font-family="Times,serif" font-size="14.00">b</text>
</g>
<!-- node41&#45;&gt;node40 -->
<g id="edge10" class="edge">
<title>node41&#45;&gt;node40</title>
<path fill="none" stroke="blue" d="M447.56,-913.48C447.56,-900.01 447.56,-880.91 447.56,-864.2"/>
<polygon fill="blue" stroke="blue" points="451.06,-864.18 447.56,-854.18 444.06,-864.18 451.06,-864.18"/>
<g id="a_edge10&#45;label"><a xlink:title="Function 1">
<text text-anchor="middle" x="467.56" y="-875.83" font-family="Times,serif" font-size="14.00">func1</text>
</a>
</g>
</g>
<!-- node39 -->
<g id="node12" class="node">
<title>node39</title>
<ellipse fill="none" stroke="black" cx="447.56" cy="-731.29" rx="60.39" ry="18"/>
<text text-anchor="middle" x="447.56" y="-727.59" font-family="Times,serif" font-size="14.00">BlockNode</text>
</g>
<!-- node40&#45;&gt;node39 -->
<g id="edge11" class="edge">
<title>node40&#45;&gt;node39</title>
<path fill="none" stroke="blue" d="M447.56,-800.26C447.56,-787.63 447.56,-772.43 447.56,-759.61"/>
<polygon fill="blue" stroke="blue" points="451.06,-759.51 447.56,-749.51 444.06,-759.52 451.06,-759.51"/>
<g id="a_edge11&#45;label"><a xlink:title="Procedure Block">
<text text-anchor="middle" x="466.56" y="-771.09" font-family="Times,serif" font-size="14.00">block</text>
</a>
</g>
</g>
<!-- node19 -->
<g id="node13" class="node">
<title>node19</title>
<ellipse fill="none" stroke="black" cx="273.56" cy="-635.42" rx="84.49" ry="18"/>
<text text-anchor="middle" x="273.56" y="-631.72" font-family="Times,serif" font-size="14.00">VarDefListNode</text>
</g>
<!-- node39&#45;&gt;node19 -->
<g id="edge12" class="edge">
<title>node39&#45;&gt;node19</title>
<path fill="none" stroke="blue" d="M419.6,-715.21C390.45,-699.48 344.55,-674.72 312,-657.16"/>
<polygon fill="blue" stroke="blue" points="313.66,-654.08 303.19,-652.41 310.33,-660.24 313.66,-654.08"/>
<g id="a_edge12&#45;label"><a xlink:title="Var Part">
<text text-anchor="middle" x="393.56" y="-684.09" font-family="Times,serif" font-size="14.00">var</text>
</a>
</g>
</g>
<!-- node28 -->
<g id="node17" class="node">
<title>node28</title>
<ellipse fill="none" stroke="black" cx="451.56" cy="-635.42" rx="75.29" ry="18"/>
<text text-anchor="middle" x="451.56" y="-631.72" font-family="Times,serif" font-size="14.00">StmtListNode</text>
</g>
<!-- node39&#45;&gt;node28 -->
<g id="edge16" class="edge">
<title>node39&#45;&gt;node28</title>
<path fill="none" stroke="blue" d="M448.29,-713.08C448.88,-699.31 449.71,-679.76 450.39,-663.85"/>
<polygon fill="blue" stroke="blue" points="453.9,-663.67 450.83,-653.53 446.91,-663.37 453.9,-663.67"/>
<g id="a_edge16&#45;label"><a xlink:title="Statement Part">
<text text-anchor="middle" x="471.06" y="-684.09" font-family="Times,serif" font-size="14.00">stmts</text>
</a>
</g>
</g>
<!-- node20 -->
<g id="node14" class="node">
<title>node20</title>
<ellipse fill="none" stroke="black" cx="203.56" cy="-520.08" rx="72.66" ry="26.74"/>
<text text-anchor="middle" x="203.56" y="-523.88" font-family="Times,serif" font-size="14.00">VarDefNode</text>
<text text-anchor="middle" x="203.56" y="-508.88" font-family="Times,serif" font-size="14.00">x</text>
</g>
<!-- node19&#45;&gt;node20 -->
<g id="edge13" class="edge">
<title>node19&#45;&gt;node20</title>
<path fill="none" stroke="blue" d="M262.93,-617.21C252.8,-600.81 237.27,-575.66 224.63,-555.19"/>
<polygon fill="blue" stroke="blue" points="227.47,-553.13 219.24,-546.46 221.51,-556.81 227.47,-553.13"/>
<g id="a_edge13&#45;label"><a xlink:title="Type of Field 1">
<text text-anchor="middle" x="265.56" y="-579.35" font-family="Times,serif" font-size="14.00">field1</text>
</a>
</g>
</g>
<!-- node18 -->
<g id="node15" class="node">
<title>node18</title>
<ellipse fill="none" stroke="black" cx="152.56" cy="-394.12" rx="76.09" ry="18"/>
<text text-anchor="middle" x="152.56" y="-390.42" font-family="Times,serif" font-size="14.00">TypeAttrNode</text>
</g>
<!-- node20&#45;&gt;node18 -->
<g id="edge14" class="edge">
<title>node20&#45;&gt;node18</title>
<path fill="none" stroke="blue" d="M192.99,-493.39C184.38,-472.46 172.25,-442.99 163.53,-421.79"/>
<polygon fill="blue" stroke="blue" points="166.71,-420.33 159.67,-412.41 160.24,-422.99 166.71,-420.33"/>
<g id="a_edge14&#45;label"><a xlink:title="Variable Definition">
<text text-anchor="middle" x="204.56" y="-453.4" font-family="Times,serif" font-size="14.00">vardef</text>
</a>
</g>
</g>
<!-- node17 -->
<g id="node16" class="node">
<title>node17</title>
<ellipse fill="none" stroke="black" cx="137.56" cy="-278.78" rx="85.62" ry="26.74"/>
<text text-anchor="middle" x="137.56" y="-282.58" font-family="Times,serif" font-size="14.00">BasicAttrNode</text>
<text text-anchor="middle" x="137.56" y="-267.58" font-family="Times,serif" font-size="14.00">integer</text>
</g>
<!-- node18&#45;&gt;node17 -->
<g id="edge15" class="edge">
<title>node18&#45;&gt;node17</title>
<path fill="none" stroke="blue" d="M150.28,-375.91C148.19,-360.09 145.02,-336.12 142.36,-316.08"/>
<polygon fill="blue" stroke="blue" points="145.81,-315.47 141.03,-306.02 138.87,-316.39 145.81,-315.47"/>
<g id="a_edge15&#45;label"><a xlink:title="Basic Type">
<text text-anchor="middle" x="164.06" y="-327.45" font-family="Times,serif" font-size="14.00">basic</text>
</a>
</g>
</g>
<!-- node27 -->
<g id="node18" class="node">
<title>node27</title>
<ellipse fill="none" stroke="black" cx="360.56" cy="-520.08" rx="57.69" ry="18"/>
<text text-anchor="middle" x="360.56" y="-516.38" font-family="Times,serif" font-size="14.00">StmtNode</text>
</g>
<!-- node28&#45;&gt;node27 -->
<g id="edge17" class="edge">
<title>node28&#45;&gt;node27</title>
<path fill="none" stroke="blue" d="M438.13,-617.7C422.88,-598.7 397.83,-567.5 380.34,-545.71"/>
<polygon fill="blue" stroke="blue" points="383.03,-543.48 374.04,-537.87 377.57,-547.86 383.03,-543.48"/>
<g id="a_edge17&#45;label"><a xlink:title="Statement 1">
<text text-anchor="middle" x="436.06" y="-579.35" font-family="Times,serif" font-size="14.00">stmt1</text>
</a>
</g>
</g>
<!-- node38 -->
<g id="node24" class="node">
<title>node38</title>
<ellipse fill="none" stroke="black" cx="494.56" cy="-520.08" rx="57.69" ry="18"/>
<text text-anchor="middle" x="494.56" y="-516.38" font-family="Times,serif" font-size="14.00">StmtNode</text>
</g>
<!-- node28&#45;&gt;node38 -->
<g id="edge23" class="edge">
<title>node28&#45;&gt;node38</title>
<path fill="none" stroke="blue" d="M458.09,-617.21C465.11,-598.71 476.35,-569.08 484.5,-547.6"/>
<polygon fill="blue" stroke="blue" points="487.83,-548.67 488.11,-538.08 481.29,-546.19 487.83,-548.67"/>
<g id="a_edge23&#45;label"><a xlink:title="Statement 2">
<text text-anchor="middle" x="495.06" y="-579.35" font-family="Times,serif" font-size="14.00">stmt2</text>
</a>
</g>
</g>
<!-- node26 -->
<g id="node19" class="node">
<title>node26</title>
<ellipse fill="none" stroke="black" cx="360.56" cy="-394.12" rx="89.08" ry="18"/>
<text text-anchor="middle" x="360.56" y="-390.42" font-family="Times,serif" font-size="14.00">AssignStmtNode</text>
</g>
<!-- node27&#45;&gt;node26 -->
<g id="edge18" class="edge">
<title>node27&#45;&gt;node26</title>
<path fill="none" stroke="blue" d="M360.56,-501.84C360.56,-481.31 360.56,-446.73 360.56,-422.52"/>
<polygon fill="blue" stroke="blue" points="364.06,-422.21 360.56,-412.21 357.06,-422.21 364.06,-422.21"/>
<g id="a_edge18&#45;label"><a xlink:title="Assign Statement">
<text text-anchor="middle" x="383.56" y="-453.4" font-family="Times,serif" font-size="14.00">assign</text>
</a>
</g>
</g>
<!-- node22 -->
<g id="node20" class="node">
<title>node22</title>
<ellipse fill="none" stroke="black" cx="298.56" cy="-278.78" rx="57.69" ry="18"/>
<text text-anchor="middle" x="298.56" y="-275.08" font-family="Times,serif" font-size="14.00">ExprNode</text>
</g>
<!-- node26&#45;&gt;node22 -->
<g id="edge19" class="edge">
<title>node26&#45;&gt;node22</title>
<path fill="none" stroke="blue" d="M351.14,-375.91C340.93,-357.24 324.52,-327.24 312.75,-305.72"/>
<polygon fill="blue" stroke="blue" points="315.73,-303.88 307.86,-296.78 309.59,-307.24 315.73,-303.88"/>
<g id="a_edge19&#45;label"><a xlink:title="Left Value">
<text text-anchor="middle" x="342.56" y="-327.45" font-family="Times,serif" font-size="14.00">lval</text>
</a>
</g>
</g>
<!-- node25 -->
<g id="node22" class="node">
<title>node25</title>
<ellipse fill="none" stroke="black" cx="432.56" cy="-278.78" rx="57.69" ry="18"/>
<text text-anchor="middle" x="432.56" y="-275.08" font-family="Times,serif" font-size="14.00">ExprNode</text>
</g>
<!-- node26&#45;&gt;node25 -->
<g id="edge21" class="edge">
<title>node26&#45;&gt;node25</title>
<path fill="none" stroke="blue" d="M371.5,-375.91C383.41,-357.16 402.58,-326.97 416.27,-305.43"/>
<polygon fill="blue" stroke="blue" points="419.35,-307.1 421.76,-296.78 413.44,-303.35 419.35,-307.1"/>
<g id="a_edge21&#45;label"><a xlink:title="Right Value">
<text text-anchor="middle" x="417.56" y="-327.45" font-family="Times,serif" font-size="14.00">rval</text>
</a>
</g>
</g>
<!-- node21 -->
<g id="node21" class="node">
<title>node21</title>
<ellipse fill="none" stroke="black" cx="294.56" cy="-163.43" rx="48.17" ry="26.74"/>
<text text-anchor="middle" x="294.56" y="-167.23" font-family="Times,serif" font-size="14.00">IdNode</text>
<text text-anchor="middle" x="294.56" y="-152.23" font-family="Times,serif" font-size="14.00">x</text>
</g>
<!-- node22&#45;&gt;node21 -->
<g id="edge20" class="edge">
<title>node22&#45;&gt;node21</title>
<path fill="none" stroke="blue" d="M297.95,-260.56C297.39,-244.74 296.55,-220.77 295.84,-200.73"/>
<polygon fill="blue" stroke="blue" points="299.34,-200.54 295.49,-190.67 292.34,-200.79 299.34,-200.54"/>
<g id="a_edge20&#45;label"><a xlink:title="Identifier">
<text text-anchor="middle" x="304.56" y="-222.71" font-family="Times,serif" font-size="14.00">id</text>
</a>
</g>
</g>
<!-- node24 -->
<g id="node23" class="node">
<title>node24</title>
<ellipse fill="none" stroke="black" cx="432.56" cy="-163.43" rx="71.34" ry="37.45"/>
<text text-anchor="middle" x="432.56" y="-174.73" font-family="Times,serif" font-size="14.00">LiteralNode</text>
<text text-anchor="middle" x="432.56" y="-159.73" font-family="Times,serif" font-size="14.00">integer</text>
<text text-anchor="middle" x="432.56" y="-144.73" font-family="Times,serif" font-size="14.00">2</text>
</g>
<!-- node25&#45;&gt;node24 -->
<g id="edge22" class="edge">
<title>node25&#45;&gt;node24</title>
<path fill="none" stroke="blue" d="M432.56,-260.56C432.56,-247.41 432.56,-228.64 432.56,-211.16"/>
<polygon fill="blue" stroke="blue" points="436.06,-211.08 432.56,-201.08 429.06,-211.08 436.06,-211.08"/>
<g id="a_edge22&#45;label"><a xlink:title="Literal">
<text text-anchor="middle" x="454.06" y="-222.71" font-family="Times,serif" font-size="14.00">literal</text>
</a>
</g>
</g>
<!-- node37 -->
<g id="node25" class="node">
<title>node37</title>
<ellipse fill="none" stroke="black" cx="568.56" cy="-394.12" rx="89.08" ry="18"/>
<text text-anchor="middle" x="568.56" y="-390.42" font-family="Times,serif" font-size="14.00">AssignStmtNode</text>
</g>
<!-- node38&#45;&gt;node37 -->
<g id="edge24" class="edge">
<title>node38&#45;&gt;node37</title>
<path fill="none" stroke="blue" d="M504.69,-502.1C517.19,-481.17 538.55,-445.38 553.1,-421.02"/>
<polygon fill="blue" stroke="blue" points="556.19,-422.67 558.31,-412.29 550.18,-419.08 556.19,-422.67"/>
<g id="a_edge24&#45;label"><a xlink:title="Assign Statement">
<text text-anchor="middle" x="559.56" y="-453.4" font-family="Times,serif" font-size="14.00">assign</text>
</a>
</g>
</g>
<!-- node30 -->
<g id="node26" class="node">
<title>node30</title>
<ellipse fill="none" stroke="black" cx="568.56" cy="-278.78" rx="57.69" ry="18"/>
<text text-anchor="middle" x="568.56" y="-275.08" font-family="Times,serif" font-size="14.00">ExprNode</text>
</g>
<!-- node37&#45;&gt;node30 -->
<g id="edge25" class="edge">
<title>node37&#45;&gt;node30</title>
<path fill="none" stroke="blue" d="M568.56,-375.91C568.56,-357.58 568.56,-328.31 568.56,-306.88"/>
<polygon fill="blue" stroke="blue" points="572.06,-306.78 568.56,-296.78 565.06,-306.78 572.06,-306.78"/>
<g id="a_edge25&#45;label"><a xlink:title="Left Value">
<text text-anchor="middle" x="581.56" y="-327.45" font-family="Times,serif" font-size="14.00">lval</text>
</a>
</g>
</g>
<!-- node36 -->
<g id="node28" class="node">
<title>node36</title>
<ellipse fill="none" stroke="black" cx="707.56" cy="-278.78" rx="62.87" ry="26.74"/>
<text text-anchor="middle" x="707.56" y="-282.58" font-family="Times,serif" font-size="14.00">ExprNode</text>
<text text-anchor="middle" x="707.56" y="-267.58" font-family="Times,serif" font-size="14.00">EK_Add</text>
</g>
<!-- node37&#45;&gt;node36 -->
<g id="edge27" class="edge">
<title>node37&#45;&gt;node36</title>
<path fill="none" stroke="blue" d="M589.07,-376.4C610.7,-358.76 645.2,-330.63 671.41,-309.26"/>
<polygon fill="blue" stroke="blue" points="673.72,-311.89 679.25,-302.86 669.29,-306.47 673.72,-311.89"/>
<g id="a_edge27&#45;label"><a xlink:title="Right Value">
<text text-anchor="middle" x="664.56" y="-327.45" font-family="Times,serif" font-size="14.00">rval</text>
</a>
</g>
</g>
<!-- node29 -->
<g id="node27" class="node">
<title>node29</title>
<ellipse fill="none" stroke="black" cx="570.56" cy="-163.43" rx="48.17" ry="26.74"/>
<text text-anchor="middle" x="570.56" y="-167.23" font-family="Times,serif" font-size="14.00">IdNode</text>
<text text-anchor="middle" x="570.56" y="-152.23" font-family="Times,serif" font-size="14.00">x</text>
</g>
<!-- node30&#45;&gt;node29 -->
<g id="edge26" class="edge">
<title>node30&#45;&gt;node29</title>
<path fill="none" stroke="blue" d="M568.86,-260.56C569.14,-244.74 569.57,-220.77 569.92,-200.73"/>
<polygon fill="blue" stroke="blue" points="573.42,-200.73 570.1,-190.67 566.42,-200.61 573.42,-200.73"/>
<g id="a_edge26&#45;label"><a xlink:title="Identifier">
<text text-anchor="middle" x="576.56" y="-222.71" font-family="Times,serif" font-size="14.00">id</text>
</a>
</g>
</g>
<!-- node32 -->
<g id="node29" class="node">
<title>node32</title>
<ellipse fill="none" stroke="black" cx="699.56" cy="-163.43" rx="57.69" ry="18"/>
<text text-anchor="middle" x="699.56" y="-159.73" font-family="Times,serif" font-size="14.00">ExprNode</text>
</g>
<!-- node36&#45;&gt;node32 -->
<g id="edge28" class="edge">
<title>node36&#45;&gt;node32</title>
<path fill="none" stroke="blue" d="M705.72,-251.77C704.45,-233.74 702.76,-209.79 701.47,-191.52"/>
<polygon fill="blue" stroke="blue" points="704.96,-191.25 700.77,-181.52 697.98,-191.74 704.96,-191.25"/>
<g id="a_edge28&#45;label"><a xlink:title="Operand 1">
<text text-anchor="middle" x="718.06" y="-222.71" font-family="Times,serif" font-size="14.00">op1</text>
</a>
</g>
</g>
<!-- node35 -->
<g id="node31" class="node">
<title>node35</title>
<ellipse fill="none" stroke="black" cx="835.56" cy="-163.43" rx="57.69" ry="18"/>
<text text-anchor="middle" x="835.56" y="-159.73" font-family="Times,serif" font-size="14.00">ExprNode</text>
</g>
<!-- node36&#45;&gt;node35 -->
<g id="edge30" class="edge">
<title>node36&#45;&gt;node35</title>
<path fill="none" stroke="blue" d="M734.08,-254.29C756.26,-234.66 787.7,-206.81 809.69,-187.34"/>
<polygon fill="blue" stroke="blue" points="812.16,-189.83 817.33,-180.58 807.52,-184.58 812.16,-189.83"/>
<g id="a_edge30&#45;label"><a xlink:title="Operand 2">
<text text-anchor="middle" x="785.06" y="-222.71" font-family="Times,serif" font-size="14.00">op2</text>
</a>
</g>
</g>
<!-- node31 -->
<g id="node30" class="node">
<title>node31</title>
<ellipse fill="none" stroke="black" cx="698.56" cy="-37.48" rx="48.17" ry="26.74"/>
<text text-anchor="middle" x="698.56" y="-41.28" font-family="Times,serif" font-size="14.00">IdNode</text>
<text text-anchor="middle" x="698.56" y="-26.28" font-family="Times,serif" font-size="14.00">x</text>
</g>
<!-- node32&#45;&gt;node31 -->
<g id="edge29" class="edge">
<title>node32&#45;&gt;node31</title>
<path fill="none" stroke="blue" d="M699.42,-145.19C699.27,-127.08 699.04,-98.05 698.85,-74.84"/>
<polygon fill="blue" stroke="blue" points="702.35,-74.61 698.77,-64.64 695.35,-74.67 702.35,-74.61"/>
<g id="a_edge29&#45;label"><a xlink:title="Identifier">
<text text-anchor="middle" x="706.56" y="-96.75" font-family="Times,serif" font-size="14.00">id</text>
</a>
</g>
</g>
<!-- node34 -->
<g id="node32" class="node">
<title>node34</title>
<ellipse fill="none" stroke="black" cx="836.56" cy="-37.48" rx="71.34" ry="37.45"/>
<text text-anchor="middle" x="836.56" y="-48.78" font-family="Times,serif" font-size="14.00">LiteralNode</text>
<text text-anchor="middle" x="836.56" y="-33.78" font-family="Times,serif" font-size="14.00">integer</text>
<text text-anchor="middle" x="836.56" y="-18.78" font-family="Times,serif" font-size="14.00">1</text>
</g>
<!-- node35&#45;&gt;node34 -->
<g id="edge31" class="edge">
<title>node35&#45;&gt;node34</title>
<path fill="none" stroke="blue" d="M835.7,-145.19C835.82,-129.7 836.01,-106.22 836.18,-85.23"/>
<polygon fill="blue" stroke="blue" points="839.68,-85.2 836.26,-75.17 832.68,-85.14 839.68,-85.2"/>
<g id="a_edge31&#45;label"><a xlink:title="Literal">
<text text-anchor="middle" x="857.06" y="-96.75" font-family="Times,serif" font-size="14.00">literal</text>
</a>
</g>
</g>
<!-- node48 -->
<g id="node34" class="node">
<title>node48</title>
<ellipse fill="none" stroke="black" cx="632.56" cy="-827.16" rx="57.69" ry="18"/>
<text text-anchor="middle" x="632.56" y="-823.46" font-family="Times,serif" font-size="14.00">StmtNode</text>
</g>
<!-- node49&#45;&gt;node48 -->
<g id="edge33" class="edge">
<title>node49&#45;&gt;node48</title>
<path fill="none" stroke="blue" d="M632.56,-913.48C632.56,-897.59 632.56,-873.86 632.56,-855.45"/>
<polygon fill="blue" stroke="blue" points="636.06,-855.33 632.56,-845.33 629.06,-855.33 636.06,-855.33"/>
<g id="a_edge33&#45;label"><a xlink:title="Statement 1">
<text text-anchor="middle" x="654.06" y="-875.83" font-family="Times,serif" font-size="14.00">stmt1</text>
</a>
</g>
</g>
<!-- node59 -->
<g id="node40" class="node">
<title>node59</title>
<ellipse fill="none" stroke="black" cx="816.56" cy="-827.16" rx="57.69" ry="18"/>
<text text-anchor="middle" x="816.56" y="-823.46" font-family="Times,serif" font-size="14.00">StmtNode</text>
</g>
<!-- node49&#45;&gt;node59 -->
<g id="edge39" class="edge">
<title>node49&#45;&gt;node59</title>
<path fill="none" stroke="blue" d="M660.91,-915.08C693.11,-897.09 745.72,-867.72 780.74,-848.16"/>
<polygon fill="blue" stroke="blue" points="782.65,-851.1 789.68,-843.17 779.24,-844.99 782.65,-851.1"/>
<g id="a_edge39&#45;label"><a xlink:title="Statement 2">
<text text-anchor="middle" x="758.06" y="-875.83" font-family="Times,serif" font-size="14.00">stmt2</text>
</a>
</g>
</g>
<!-- node47 -->
<g id="node35" class="node">
<title>node47</title>
<ellipse fill="none" stroke="black" cx="632.56" cy="-731.29" rx="89.08" ry="18"/>
<text text-anchor="middle" x="632.56" y="-727.59" font-family="Times,serif" font-size="14.00">AssignStmtNode</text>
</g>
<!-- node48&#45;&gt;node47 -->
<g id="edge34" class="edge">
<title>node48&#45;&gt;node47</title>
<path fill="none" stroke="blue" d="M632.56,-808.95C632.56,-795.18 632.56,-775.63 632.56,-759.72"/>
<polygon fill="blue" stroke="blue" points="636.06,-759.4 632.56,-749.4 629.06,-759.4 636.06,-759.4"/>
<g id="a_edge34&#45;label"><a xlink:title="Assign Statement">
<text text-anchor="middle" x="655.56" y="-771.09" font-family="Times,serif" font-size="14.00">assign</text>
</a>
</g>
</g>
<!-- node43 -->
<g id="node36" class="node">
<title>node43</title>
<ellipse fill="none" stroke="black" cx="619.56" cy="-635.42" rx="57.69" ry="18"/>
<text text-anchor="middle" x="619.56" y="-631.72" font-family="Times,serif" font-size="14.00">ExprNode</text>
</g>
<!-- node47&#45;&gt;node43 -->
<g id="edge35" class="edge">
<title>node47&#45;&gt;node43</title>
<path fill="none" stroke="blue" d="M630.18,-713.08C628.27,-699.31 625.56,-679.76 623.36,-663.85"/>
<polygon fill="blue" stroke="blue" points="626.77,-662.96 621.93,-653.53 619.83,-663.92 626.77,-662.96"/>
<g id="a_edge35&#45;label"><a xlink:title="Left Value">
<text text-anchor="middle" x="641.56" y="-684.09" font-family="Times,serif" font-size="14.00">lval</text>
</a>
</g>
</g>
<!-- node46 -->
<g id="node38" class="node">
<title>node46</title>
<ellipse fill="none" stroke="black" cx="754.56" cy="-635.42" rx="57.69" ry="18"/>
<text text-anchor="middle" x="754.56" y="-631.72" font-family="Times,serif" font-size="14.00">ExprNode</text>
</g>
<!-- node47&#45;&gt;node46 -->
<g id="edge37" class="edge">
<title>node47&#45;&gt;node46</title>
<path fill="none" stroke="blue" d="M654.09,-713.73C673.99,-698.42 703.7,-675.56 725.65,-658.66"/>
<polygon fill="blue" stroke="blue" points="727.86,-661.38 733.65,-652.51 723.59,-655.83 727.86,-661.38"/>
<g id="a_edge37&#45;label"><a xlink:title="Right Value">
<text text-anchor="middle" x="711.56" y="-684.09" font-family="Times,serif" font-size="14.00">rval</text>
</a>
</g>
</g>
<!-- node42 -->
<g id="node37" class="node">
<title>node42</title>
<ellipse fill="none" stroke="black" cx="618.56" cy="-520.08" rx="48.17" ry="26.74"/>
<text text-anchor="middle" x="618.56" y="-523.88" font-family="Times,serif" font-size="14.00">IdNode</text>
<text text-anchor="middle" x="618.56" y="-508.88" font-family="Times,serif" font-size="14.00">x</text>
</g>
<!-- node43&#45;&gt;node42 -->
<g id="edge36" class="edge">
<title>node43&#45;&gt;node42</title>
<path fill="none" stroke="blue" d="M619.41,-617.21C619.27,-601.39 619.06,-577.42 618.88,-557.38"/>
<polygon fill="blue" stroke="blue" points="622.38,-557.29 618.79,-547.32 615.38,-557.35 622.38,-557.29"/>
<g id="a_edge36&#45;label"><a xlink:title="Identifier">
<text text-anchor="middle" x="626.56" y="-579.35" font-family="Times,serif" font-size="14.00">id</text>
</a>
</g>
</g>
<!-- node45 -->
<g id="node39" class="node">
<title>node45</title>
<ellipse fill="none" stroke="black" cx="756.56" cy="-520.08" rx="71.34" ry="37.45"/>
<text text-anchor="middle" x="756.56" y="-531.38" font-family="Times,serif" font-size="14.00">LiteralNode</text>
<text text-anchor="middle" x="756.56" y="-516.38" font-family="Times,serif" font-size="14.00">integer</text>
<text text-anchor="middle" x="756.56" y="-501.38" font-family="Times,serif" font-size="14.00">3</text>
</g>
<!-- node46&#45;&gt;node45 -->
<g id="edge38" class="edge">
<title>node46&#45;&gt;node45</title>
<path fill="none" stroke="blue" d="M754.86,-617.21C755.1,-604.06 755.43,-585.28 755.74,-567.81"/>
<polygon fill="blue" stroke="blue" points="759.24,-567.78 755.91,-557.72 752.24,-567.66 759.24,-567.78"/>
<g id="a_edge38&#45;label"><a xlink:title="Literal">
<text text-anchor="middle" x="777.06" y="-579.35" font-family="Times,serif" font-size="14.00">literal</text>
</a>
</g>
</g>
<!-- node58 -->
<g id="node41" class="node">
<title>node58</title>
<ellipse fill="none" stroke="black" cx="891.56" cy="-731.29" rx="89.08" ry="18"/>
<text text-anchor="middle" x="891.56" y="-727.59" font-family="Times,serif" font-size="14.00">AssignStmtNode</text>
</g>
<!-- node59&#45;&gt;node58 -->
<g id="edge40" class="edge">
<title>node59&#45;&gt;node58</title>
<path fill="none" stroke="blue" d="M829.97,-809.38C841.52,-794.92 858.37,-773.84 871.52,-757.38"/>
<polygon fill="blue" stroke="blue" points="874.51,-759.24 878.01,-749.25 869.04,-754.87 874.51,-759.24"/>
<g id="a_edge40&#45;label"><a xlink:title="Assign Statement">
<text text-anchor="middle" x="885.56" y="-771.09" font-family="Times,serif" font-size="14.00">assign</text>
</a>
</g>
</g>
<!-- node51 -->
<g id="node42" class="node">
<title>node51</title>
<ellipse fill="none" stroke="black" cx="891.56" cy="-635.42" rx="57.69" ry="18"/>
<text text-anchor="middle" x="891.56" y="-631.72" font-family="Times,serif" font-size="14.00">ExprNode</text>
</g>
<!-- node58&#45;&gt;node51 -->
<g id="edge41" class="edge">
<title>node58&#45;&gt;node51</title>
<path fill="none" stroke="blue" d="M891.56,-713.08C891.56,-699.31 891.56,-679.76 891.56,-663.85"/>
<polygon fill="blue" stroke="blue" points="895.06,-663.53 891.56,-653.53 888.06,-663.53 895.06,-663.53"/>
<g id="a_edge41&#45;label"><a xlink:title="Left Value">
<text text-anchor="middle" x="904.56" y="-684.09" font-family="Times,serif" font-size="14.00">lval</text>
</a>
</g>
</g>
<!-- node57 -->
<g id="node44" class="node">
<title>node57</title>
<ellipse fill="none" stroke="black" cx="1030.56" cy="-635.42" rx="62.87" ry="26.74"/>
<text text-anchor="middle" x="1030.56" y="-639.22" font-family="Times,serif" font-size="14.00">ExprNode</text>
<text text-anchor="middle" x="1030.56" y="-624.22" font-family="Times,serif" font-size="14.00">EK_Add</text>
</g>
<!-- node58&#45;&gt;node57 -->
<g id="edge43" class="edge">
<title>node58&#45;&gt;node57</title>
<path fill="none" stroke="blue" d="M915.77,-713.94C936,-700.28 965.29,-680.5 989.23,-664.34"/>
<polygon fill="blue" stroke="blue" points="991.44,-667.06 997.77,-658.57 987.53,-661.26 991.44,-667.06"/>
<g id="a_edge43&#45;label"><a xlink:title="Right Value">
<text text-anchor="middle" x="978.56" y="-684.09" font-family="Times,serif" font-size="14.00">rval</text>
</a>
</g>
</g>
<!-- node50 -->
<g id="node43" class="node">
<title>node50</title>
<ellipse fill="none" stroke="black" cx="894.56" cy="-520.08" rx="48.17" ry="26.74"/>
<text text-anchor="middle" x="894.56" y="-523.88" font-family="Times,serif" font-size="14.00">IdNode</text>
<text text-anchor="middle" x="894.56" y="-508.88" font-family="Times,serif" font-size="14.00">x</text>
</g>
<!-- node51&#45;&gt;node50 -->
<g id="edge42" class="edge">
<title>node51&#45;&gt;node50</title>
<path fill="none" stroke="blue" d="M892.02,-617.21C892.43,-601.39 893.07,-577.42 893.6,-557.38"/>
<polygon fill="blue" stroke="blue" points="897.1,-557.41 893.87,-547.32 890.1,-557.22 897.1,-557.41"/>
<g id="a_edge42&#45;label"><a xlink:title="Identifier">
<text text-anchor="middle" x="899.56" y="-579.35" font-family="Times,serif" font-size="14.00">id</text>
</a>
</g>
</g>
<!-- node53 -->
<g id="node45" class="node">
<title>node53</title>
<ellipse fill="none" stroke="black" cx="1022.56" cy="-520.08" rx="57.69" ry="18"/>
<text text-anchor="middle" x="1022.56" y="-516.38" font-family="Times,serif" font-size="14.00">ExprNode</text>
</g>
<!-- node57&#45;&gt;node53 -->
<g id="edge44" class="edge">
<title>node57&#45;&gt;node53</title>
<path fill="none" stroke="blue" d="M1028.72,-608.42C1027.45,-590.39 1025.76,-566.43 1024.47,-548.17"/>
<polygon fill="blue" stroke="blue" points="1027.96,-547.89 1023.77,-538.16 1020.98,-548.39 1027.96,-547.89"/>
<g id="a_edge44&#45;label"><a xlink:title="Operand 1">
<text text-anchor="middle" x="1040.06" y="-579.35" font-family="Times,serif" font-size="14.00">op1</text>
</a>
</g>
</g>
<!-- node56 -->
<g id="node47" class="node">
<title>node56</title>
<ellipse fill="none" stroke="black" cx="1158.56" cy="-520.08" rx="57.69" ry="18"/>
<text text-anchor="middle" x="1158.56" y="-516.38" font-family="Times,serif" font-size="14.00">ExprNode</text>
</g>
<!-- node57&#45;&gt;node56 -->
<g id="edge46" class="edge">
<title>node57&#45;&gt;node56</title>
<path fill="none" stroke="blue" d="M1057.08,-610.94C1079.26,-591.3 1110.7,-563.46 1132.69,-543.99"/>
<polygon fill="blue" stroke="blue" points="1135.16,-546.47 1140.33,-537.22 1130.52,-541.23 1135.16,-546.47"/>
<g id="a_edge46&#45;label"><a xlink:title="Operand 2">
<text text-anchor="middle" x="1108.06" y="-579.35" font-family="Times,serif" font-size="14.00">op2</text>
</a>
</g>
</g>
<!-- node52 -->
<g id="node46" class="node">
<title>node52</title>
<ellipse fill="none" stroke="black" cx="1021.56" cy="-394.12" rx="48.17" ry="26.74"/>
<text text-anchor="middle" x="1021.56" y="-397.92" font-family="Times,serif" font-size="14.00">IdNode</text>
<text text-anchor="middle" x="1021.56" y="-382.92" font-family="Times,serif" font-size="14.00">x</text>
</g>
<!-- node53&#45;&gt;node52 -->
<g id="edge45" class="edge">
<title>node53&#45;&gt;node52</title>
<path fill="none" stroke="blue" d="M1022.42,-501.84C1022.27,-483.73 1022.04,-454.7 1021.85,-431.48"/>
<polygon fill="blue" stroke="blue" points="1025.35,-431.26 1021.77,-421.29 1018.35,-431.32 1025.35,-431.26"/>
<g id="a_edge45&#45;label"><a xlink:title="Identifier">
<text text-anchor="middle" x="1028.56" y="-453.4" font-family="Times,serif" font-size="14.00">id</text>
</a>
</g>
</g>
<!-- node55 -->
<g id="node48" class="node">
<title>node55</title>
<ellipse fill="none" stroke="black" cx="1159.56" cy="-394.12" rx="71.34" ry="37.45"/>
<text text-anchor="middle" x="1159.56" y="-405.42" font-family="Times,serif" font-size="14.00">LiteralNode</text>
<text text-anchor="middle" x="1159.56" y="-390.42" font-family="Times,serif" font-size="14.00">integer</text>
<text text-anchor="middle" x="1159.56" y="-375.42" font-family="Times,serif" font-size="14.00">1</text>
</g>
<!-- node56&#45;&gt;node55 -->
<g id="edge47" class="edge">
<title>node56&#45;&gt;node55</title>
<path fill="none" stroke="blue" d="M1158.7,-501.84C1158.82,-486.35 1159.01,-462.87 1159.18,-441.88"/>
<polygon fill="blue" stroke="blue" points="1162.68,-441.84 1159.26,-431.82 1155.68,-441.79 1162.68,-441.84"/>
<g id="a_edge47&#45;label"><a xlink:title="Literal">
<text text-anchor="middle" x="1180.06" y="-453.4" font-family="Times,serif" font-size="14.00">literal</text>
</a>
</g>
</g>
<!-- node67 -->
<g id="node50" class="node">
<title>node67</title>
<ellipse fill="none" stroke="black" cx="726.56" cy="-1123.64" rx="57.69" ry="18"/>
<text text-anchor="middle" x="726.56" y="-1119.94" font-family="Times,serif" font-size="14.00">StmtNode</text>
</g>
<!-- node68&#45;&gt;node67 -->
<g id="edge49" class="edge">
<title>node68&#45;&gt;node67</title>
<path fill="none" stroke="blue" d="M686.55,-1201.3C693.98,-1187.05 704.66,-1166.6 713.11,-1150.4"/>
<polygon fill="blue" stroke="blue" points="716.27,-1151.92 717.79,-1141.44 710.06,-1148.68 716.27,-1151.92"/>
<g id="a_edge49&#45;label"><a xlink:title="Statement 1">
<text text-anchor="middle" x="725.06" y="-1172.31" font-family="Times,serif" font-size="14.00">stmt1</text>
</a>
</g>
</g>
<!-- node66 -->
<g id="node51" class="node">
<title>node66</title>
<ellipse fill="none" stroke="black" cx="776.56" cy="-1027.77" rx="81.49" ry="18"/>
<text text-anchor="middle" x="776.56" y="-1024.07" font-family="Times,serif" font-size="14.00">FuncStmtNode</text>
</g>
<!-- node67&#45;&gt;node66 -->
<g id="edge50" class="edge">
<title>node67&#45;&gt;node66</title>
<path fill="none" stroke="blue" d="M735.73,-1105.43C743.27,-1091.27 754.08,-1070.98 762.68,-1054.83"/>
<polygon fill="blue" stroke="blue" points="765.84,-1056.35 767.45,-1045.88 759.66,-1053.06 765.84,-1056.35"/>
<g id="a_edge50&#45;label"><a xlink:title="Function Call Statement">
<text text-anchor="middle" x="773.06" y="-1067.57" font-family="Times,serif" font-size="14.00">func</text>
</a>
</g>
</g>
<!-- node65 -->
<g id="node52" class="node">
<title>node65</title>
<ellipse fill="none" stroke="black" cx="788.56" cy="-931.9" rx="62.87" ry="26.74"/>
<text text-anchor="middle" x="788.56" y="-935.7" font-family="Times,serif" font-size="14.00">FuncNode</text>
<text text-anchor="middle" x="788.56" y="-920.7" font-family="Times,serif" font-size="14.00">a</text>
</g>
<!-- node66&#45;&gt;node65 -->
<g id="edge51" class="edge">
<title>node66&#45;&gt;node65</title>
<path fill="none" stroke="blue" d="M778.76,-1009.56C780.21,-998.25 782.15,-983.04 783.93,-969.15"/>
<polygon fill="blue" stroke="blue" points="787.44,-969.24 785.24,-958.87 780.5,-968.35 787.44,-969.24"/>
<g id="a_edge51&#45;label"><a xlink:title="Function Call">
<text text-anchor="middle" x="809.06" y="-980.57" font-family="Times,serif" font-size="14.00">fun call</text>
</a>
</g>
</g>
</g>
</svg>
